<?xml version="1.0" encoding="utf-8"?>
<!-- Generator: Adobe Illustrator 28.1.0, SVG Export Plug-In . SVG Version: 6.00 Build 0)  -->
<svg version="1.1" id="exportSvg" xmlns="http://www.w3.org/2000/svg" xmlns:xlink="http://www.w3.org/1999/xlink" x="0px" y="0px"
	 viewBox="0 0 600 423" style="enable-background:new 0 0 600 423;" xml:space="preserve">
<style type="text/css">
	.st0{fill:#FFFFFF;}
	.st1{clip-path:url(#SVGID_00000072965863912393396890000009803292886882593696_);}
	.st2{font-family:'Arial-BoldMT';}
	.st3{font-size:22px;}
	.st4{fill:#181818;}
	.st5{font-family:'ArialMT';}
	.st6{font-size:14px;}
	.st7{fill:url(#SVGID_00000041984477773352214760000016041109456134395783_);}
	.st8{font-size:9px;}
	.st9{clip-path:url(#SVGID_00000023982396262347471880000006650826623213530041_);}
	.st10{fill:#D5E7EF;}
	.st11{fill:#DDDDDD;}
	.st12{fill:#A0C8E0;}
	.st13{fill:#D2E6F0;}
	.st14{fill:#F6A684;}
	.st15{fill:#87BAD8;}
	.st16{fill:#DAE9EE;}
	.st17{fill:#FCE4D2;}
	.st18{fill:#3978B6;}
	.st19{fill:#E6EEEC;}
	.st20{fill:#64A6CD;}
	.st21{fill:#DCEAEE;}
	.st22{fill:#6DACD1;}
	.st23{fill:#90BEDB;}
	.st24{fill:#EAF0EC;}
	.st25{fill:#F6F5E9;}
	.st26{fill:#F9B596;}
	.st27{fill:#86B9D8;}
	.st28{fill:#D9E9EF;}
	.st29{fill:#A9CDE3;}
	.st30{fill:#F9F3E5;}
	.st31{fill:#F1936C;}
	.st32{fill:#F5F5EA;}
	.st33{fill:#AFD0E5;}
	.st34{fill:#F9B394;}
	.st35{fill:#FAEBDB;}
	.st36{fill:#2166AC;}
	.st37{fill:#5A9AC7;}
	.st38{fill:#E9EFEC;}
	.st39{fill:#F6A785;}
	.st40{fill:#B3D3E6;}
	.st41{fill:#B2182B;}
	.st42{fill:#83B8D7;}
	.st43{fill:#F9F2E3;}
	.st44{fill:#CEE3EF;}
	.st45{fill:#4B8ABF;}
	.st46{fill:#DAE9EF;}
	.st47{fill:#84B8D7;}
	.st48{fill:#4785BD;}
	.st49{fill:#D4E6EF;}
	.st50{fill:#65A7CE;}
	.st51{fill:#C3DCEB;}
	.st52{fill:#E5EEED;}
	.st53{fill:#F8F6E8;}
	.st54{fill:#F9F3E6;}
	.st55{fill:#EEF2EB;}
	.st56{fill:#61A1CB;}
	.st57{fill:#276AAE;}
	.st58{fill:#E8EFEC;}
	.st59{fill:#3473B3;}
	.st60{fill:#F4F4EA;}
	.st61{fill:#6CACD0;}
	.st62{fill:none;stroke:#FFFFFF;stroke-width:0.45;stroke-linecap:round;stroke-linejoin:round;}
	.st63{fill:none;stroke:#000000;stroke-width:0.9;stroke-linejoin:round;}
	.st64{font-size:13px;}
	.st65{fill:none;stroke:#323232;stroke-width:3;stroke-linejoin:round;}
	.st66{fill:#FFFFFF;stroke:#323232;stroke-width:0.9;stroke-miterlimit:12;stroke-opacity:0.5;}
	.st67{fill:#888888;}
	.st68{font-size:11px;}
</style>
<rect class="st0" width="600" height="423"/>
<g>
	<g>
		<defs>
			<rect id="SVGID_1_" width="600" height="417.8"/>
		</defs>
		<clipPath id="SVGID_00000060009154156513752210000015620912378058900888_">
			<use xlink:href="#SVGID_1_"  style="overflow:visible;"/>
		</clipPath>
		<g id="__svelte-dw-svg" style="clip-path:url(#SVGID_00000060009154156513752210000015620912378058900888_);">
			<text transform="matrix(1 0 0 1 0 22)" class="st2 st3">Wide disparities across Oklahoma</text>
			<text transform="matrix(1 0 0 1 0 49)" class="st4 st5 st6">For American Indian populations in Oklahoma, mortality from stomach cancer varied widely</text>
			<text transform="matrix(1 0 0 1 0 66)" class="st4 st5 st6">across rural and urban regions in 2019.</text>
			<g id="chart-svg">
				
					<linearGradient id="SVGID_00000083788709360486317710000010728702484365588149_" gradientUnits="userSpaceOnUse" x1="-48.7118" y1="458.5769" x2="-47.7118" y2="458.5769" gradientTransform="matrix(170 0 0 -13 8281 6047)">
					<stop  offset="0" style="stop-color:#2166AC"/>
					<stop  offset="6.250000e-02" style="stop-color:#407EB9"/>
					<stop  offset="0.125" style="stop-color:#5898C6"/>
					<stop  offset="0.1875" style="stop-color:#76B0D3"/>
					<stop  offset="0.25" style="stop-color:#9EC7E0"/>
					<stop  offset="0.3125" style="stop-color:#C4DDEC"/>
					<stop  offset="0.375" style="stop-color:#DBE9EE"/>
					<stop  offset="0.4375" style="stop-color:#EAF0EC"/>
					<stop  offset="0.5" style="stop-color:#F8F6E9"/>
					<stop  offset="0.5625" style="stop-color:#FAECDC"/>
					<stop  offset="0.625" style="stop-color:#FCE2CF"/>
					<stop  offset="0.6875" style="stop-color:#FCD1BA"/>
					<stop  offset="0.75" style="stop-color:#F8B393"/>
					<stop  offset="0.8125" style="stop-color:#F2946E"/>
					<stop  offset="0.875" style="stop-color:#E07153"/>
					<stop  offset="0.9375" style="stop-color:#CA4B3E"/>
					<stop  offset="1" style="stop-color:#B2182B"/>
				</linearGradient>
				<rect y="79" style="fill:url(#SVGID_00000083788709360486317710000010728702484365588149_);" width="170" height="13"/>
				<g id="labels-svg" transform="translate(0, 16)">
					<text transform="matrix(1 0 0 1 0 89.8)" class="st4 st5 st8">4.62 per 100,000</text>
					<text transform="matrix(1 0 0 1 100.6639 89.8)" class="st4 st5 st8">11.12 per 100,000</text>
				</g>
				<g>
					<defs>
						<rect id="SVGID_00000132800248097951655520000013094874626646007226_" y="116.8" width="600" height="268"/>
					</defs>
					<clipPath id="SVGID_00000057861424385825660400000012907493412006481084_">
						<use xlink:href="#SVGID_00000132800248097951655520000013094874626646007226_"  style="overflow:visible;"/>
					</clipPath>
					
						<g id="svg-main-svg_oklahoma-counties-svg" transform="translate(0, 116.79688)" style="clip-path:url(#SVGID_00000057861424385825660400000012907493412006481084_);">
						<g id="map-svg">
							<g id="regions-svg">
								<g id="region-svg">
									<path class="st10" d="M527.5,7.7l0.7,0l8.8-0.2l0.2,0l0.6,0l0.6,0l3.3-0.1l2.3-0.1l0.1,0l1.5,0l0.7,0l0.1,0l4.6-0.1l0.4,0
										l0,0.2l0,0.1l0.1,3.4l0,0.3l0,0.7l0,0.6l0,0.3l0,1.1l0,1.1l0,1.3l0.1,2.5L552,25l0.2,5l0.1,2.5l0,0.1l-10.2,0.1l-13.4,0.4
										l-0.5-21l0.3-0.5l-1.8-0.8l-0.6-0.9l-0.3-1.7L527.5,7.7z"/>
								</g>
								<g id="region-svg_00000146476252402115513980000003305571710286158233_">
									<path class="st11" d="M336,9.6l4.1,0l0.3,0l0.4,0l14.3,0l1.2,0l0,0l0.9,0l4.4,0l2.9,0l0.8,0l1.9,0l2.6,0l1.1,0l0,0l1.2,0
										l3.3,0l0.7,0l0,31.3l-39.8-0.1l-0.2-26.9l-0.1,0L336,9.6z"/>
								</g>
								<g id="region-svg_00000120530235746954757670000016255237601044834445_">
									<path class="st12" d="M336.4,188.5l26.7,0.1l6.7,0l0,13.4l0,0l0,16.8l-27.9-0.1l-0.3-0.1l-8.5-0.1l0.1-16.6l-0.2-0.2
										l0.1-13.4L336.4,188.5z"/>
								</g>
								<g id="region-svg_00000036234810623213016910000008774443320921111700_">
									<path class="st13" d="M396.3,108l0-16.8l32.4-0.2l0.2,23.4l-0.1,13.6l-31.6,0.1l-0.9,0L396.3,108z"/>
								</g>
								<g id="region-svg_00000129169792968192365170000001744603198646266039_">
									<path class="st11" d="M243.2,39.6l19.3,0.2l0.3-17.3l0,1.1l1.4,1.3l1.2,0.4l2.5-0.4l1.3,0.3l1.4-0.2l1.6,0.6l0.8,1.6
										l1.8,1.6l0.8,1.6l1.4,0.5l1,1.6l-0.2,0.7l0.8,1.5l0.7,0.5l0,1.5l0.6,0.2l2.5,3.1l0.7,0.1l-0.1,7.1l0,20.1l-0.1,6.6
										L256.4,73l-13.3-0.2l0.1-6.4l-0.5,0L243.2,39.6z"/>
								</g>
								<g id="region-svg_00000127016788881314470720000002272235367784173206_">
									<path class="st14" d="M440.5,141.3l28.3-0.3l0.7,0l0,10.7l-1.3,0.2l-0.6,0.6l0.3,1.5l-1.3,0.2l-0.7,1.2l-1.3,1.3l-0.4,2.4
										l-1.2,0.5l0,15.1l0.1,6.7l-19.9,0.3l-0.1-10.9l-0.2-1.7l-0.6,1.8l-1.1,0.5l-1.5-1.1l-2,0.5l-0.1-15.8l3.1,0L440.5,141.3z"
										/>
								</g>
								<g id="region-svg_00000152239154547848970300000010756423993581559943_">
									<path class="st11" d="M217.4,94l1.8-0.5l0.8-0.9l2.2-1l1.3-1.7l-0.4-1.4l0.3-0.9l1.3-1.6l0.8,0l1.3-1.2l1.1-0.2l1.8,0.6
										l0.4,2.2l-0.4,0.9l-0.2,2.4l0.5,1.4l1.4,1.1l0.2,0.7l0.9,0.6l0.9-0.1l1.8,1.8l2.4,0.7l1.5,0.1l2.1,0.7l1.1-1.1l2.7-0.7
										l0.6-2.6l2.2-1.9l1.3-4.1l1.2-0.5l1.6-1.5l1.9-0.5l2.6,0l0.1,8.8l-0.1,6.7l-0.4,20.1l0.8,0l-0.1,3.3l-13.3-0.3l-0.1,6.7
										l-26.7-0.7l0.4-15.2L217.4,94z"/>
								</g>
								<g id="region-svg_00000081624940997900778390000013757024256966462385_">
									<path class="st11" d="M329.5,73.9l6.6,0l0.4,0l26.3,0.1l0,33.9l-33.4-0.1l0.1-13.4L329.5,73.9z"/>
								</g>
								<g id="region-svg_00000095321247570802497630000016244828581531688075_">
									<path class="st11" d="M256.4,73l26.6,0.7l19.9,0l0.1,20.5l-0.1,6.7l-4.8-0.1l0,0l-41.8-0.7l0.1-6.7l-0.1-8.8L256.4,73z"/>
								</g>
								<g id="region-svg_00000067206141626729345950000009460423536191275164_">
									<path class="st15" d="M479.4,8.7l1.1,0l0.5,0l1.1,0l1.5,0l0.2,0l0.3,0l0.8,0l0.6,0l1.4,0l2.1,0l0.4,0l0.5,0l0.2,0l2.4,0
										l2.4,0l0.7,0l0.7,0l6.4-0.1l0.1,4.3l-1.5,0l0.6,26.7l-23.4,0.4l-0.5-26.6l1.4,0L479.4,8.7z"/>
								</g>
								<g id="region-svg_00000021835848056854848820000004785660366127893667_">
									<path class="st16" d="M528.6,45.5l-0.2-6.8l0.2-5.6l13.4-0.4l10.2-0.1l0.1,4.3l0,0.4l0,0.6l0,1.6l0.1,3.2l0,0.1l0,0.2
										l0,1.3l0,0.2l0,1.2l0.2,1.1l0.1,0.7l0.2,1.1l0.5,3l0.2,1.3l0.1,0.3l0.2,1.1l0.5,3.2l0.6,3.5l0.6,3.8l0,0.1l0.1,0.7l0.1,0.5
										l0,0.1l0,0.2l0.2,1.2l0,0.2l0.4,2.1l0.1,0.4l0.2,1.3L542.3,72l-13.3,0.3l0.2-6.8L528.6,45.5z"/>
								</g>
								<g id="region-svg_00000163034433775745802090000009869861123930102445_">
									<path class="st17" d="M289.5,194.8l0.3-20.1l13.1,0.2l33.4,0.3l0.2,0.5l-0.1,12.9l-3.3,0l-0.1,13.4l-6.5-0.1l-0.1,3.4
										l-3.3,0l0,1.1l-13.3-0.2l0,2.3l-6.7-0.1l0,1.1l-3.4,0l0.1-7.8l-10.4-0.1L289.5,194.8z"/>
								</g>
								<g id="region-svg_00000116938106007337218170000008388893248319150254_">
									<path class="st18" d="M362.8,74.1l13.4,0l6.6,0l0,0.4l0,13.5l1.9-2l1.8,0.4l0.5,1.9l0.7,0.6l2,0.1l1.4,0.6l1.1,1.5l1.9,0.3
										l1.8-1l0.2,1l0,16.8l-33.4-0.1L362.8,74.1z"/>
								</g>
								<g id="region-svg_00000081608214883258214000000007170519269471936945_">
									<path class="st19" d="M542.3,72l14.6-0.5l0,0l0.1,0.7l0.7,3.8L558,78l0,0.1l0.9,5.3l0.1,0.4l0.1,0.4l0.1,0.7l0.3,1.7l0,0
										l0.3,1.5l0,0.1l0.1,0.6l0,0.1l0,0l0,0l0.4,2.5l0.7,4.3l0.1,0.9l0.1,0.6l0.1,0.7l0.1,0.8l0,0.2l0,0.1l0.1,0.4l0,0.3l0.3,1.9
										l0.1,0.5l0,0.2l0.3,2.3l0.1,0.2l1.1,6.7l-21,0.6l-0.6-20.3l0.6,0L542.3,72z"/>
								</g>
								<g id="region-svg_00000163752154323881052690000003755646235246550449_">
									<path class="st20" d="M362.9,108l33.4,0.1l0,20.1l0,6.7l-11,0l-6.7,0l-15.6,0l0-2.3l-0.1-11.2L362.9,108z"/>
								</g>
								<g id="region-svg_00000067194278551969824570000006520524896729032860_">
									<path class="st21" d="M443.4,208.6l16.7-0.2l-0.1-6.8l3.4,0l-0.2-13.5l13.3-0.2l0.1,6.7l13.4-0.3l0.1,6.7l-6.8,0.1l0,0.5
										l0.4,26.5l-13.6,0.2l-26.6,0.3L443.4,208.6z"/>
								</g>
								<g id="region-svg_00000165945011878814364100000010963078655812282288_">
									<path class="st22" d="M436.5,201.9l0-13.5l6.7-0.1l-0.1-6.8l19.9-0.3l0.1,6.7l0.2,13.5l-3.4,0l0.1,6.8l-16.7,0.2l-6.8,0
										L436.5,201.9z"/>
								</g>
								<g id="region-svg_00000076593207757816633650000005540428644513327528_">
									<path class="st23" d="M490,194.3l10-0.2l-0.1-6.7l28.9-0.6l7.8-0.2l0.3,13.4l-6.9,0.1l0.5,20.4l-6.7,0.1l-0.2,6.7
										l-39.8,0.8l-0.4-26.5l0-0.5l6.8-0.1L490,194.3z"/>
								</g>
								<g id="region-svg_00000053521174977559337360000015648205519209865141_">
									<path class="st24" d="M428.6,74.2l0.1-0.3l20-0.1l0.1,6.7l16.7-0.2l0.1,6.7l0.1,6.7l-0.2,3.4l-6.8,0l-3.2,0.1l0.2,16.8
										l-26.9,0.3l-0.2-23.4L428.6,74.2z"/>
								</g>
								<g id="region-svg_00000126300877136895152780000015277377228885252541_">
									<path class="st25" d="M376.2,41l25.1-0.1l1.4,0.6l2,0.3l3.4-0.6l1.7-0.8l0.5,0.1l1.5,1.8l-0.9,1.8l-1.4-0.1l-2.1,1.4
										l-1.3-0.1l-1.1,0.5l-0.8,1.7l-1.4,0l0.1,13.4l6.7,0l0,6.7l-13.4,0.1l0,6.7l-13.3,0l0-0.4l-6.6,0L376.2,41z"/>
								</g>
								<g id="region-svg_00000177446074902669896840000007283095633508208316_">
									<path class="st26" d="M303.1,127.8l0.1-6.7l19.5,0.2l0.3,0l0.1,2.7l-0.1,10.8l13.2,0l0.2,13.6l-0.1,8.8l-0.1,18.1
										l-33.4-0.3l0.2-18.7l0.3-8.2l-0.3,0L303.1,127.8z"/>
								</g>
								<g id="region-svg_00000083062631816732002200000012336451761903972782_">
									<path class="st27" d="M466.2,9l2.3-0.1l1.7,0l0.5,0l1.1,0l2,0l0.1,0l0.1,0l0.4,0l3.6-0.1l1.3,0l0.1,4.5l-1.4,0l0.5,26.6
										l-0.2,0l0.2,13.4l-11.7,0.2L466.2,9z"/>
								</g>
								<g id="region-svg_00000034086073432717760330000017165986393567577997_">
									<path class="st28" d="M256.3,100.2l41.8,0.7l0,0l4.8,0.1l-0.2,20.2l0.5,0l-0.1,6.7l-46.6-0.8l0.1-3.4l0.1-3.3l-0.8,0
										L256.3,100.2z"/>
								</g>
								<g id="region-svg_00000111177110725053831470000010969737460621277061_">
									<path class="st29" d="M509.7,158.1l26.6-0.6l0.3,9l-4.5,0.1l0.2,6.7l-3.9,0.1l0.3,13.5l-28.9,0.6l-0.2-13.4l0.1-13.5
										l10-0.2L509.7,158.1z"/>
								</g>
								<g id="region-svg_00000003783661511321408450000004297838736530663300_">
									<path class="st11" d="M94.6,3.6l-0.5,10.8l-0.3,0.3l-1.3,26.9L87,41.4l-0.2,0l-2.3-0.1L79.4,41l-0.3,0l-46.6-2.5l0.1-2
										l0.4-5.9l0.1-1.1l0.2-4.5l0.2-3.4L34.3,7l0-0.2L34.7,0l0.9,0.2l0.1,0l0.4,0l8.5,0.4l1.6,0.1l1,0.1l1.3,0.1L49.6,1l1.1,0.1
										l2.7,0.4l21.1,1.1l0,0l5.8,0.3l3.2,0.2L85,3.1l8,0.4l0.8,0.1L94.6,3.6z"/>
								</g>
								<g id="region-svg_00000148639400382606482600000013054723585258264717_">
									<path class="st11" d="M309.3,9.3l7.7,0.1l0.1,0l0.6,0l3.4,0.1l0.4,0l0.1,0l6.7,0.1l1.1,0l0.7,0l1.9,0l1.9,0l2.2,0l0,4.3
										l0.1,0l0.2,26.9l-0.1,10.1l-26.7-0.2l0.1-10.1l-0.1-26.9L309.3,9.3z"/>
								</g>
								<g id="region-svg_00000070832405014071983480000007592819631614584224_">
									<path class="st30" d="M508.6,45.9l20-0.4l0.5,20.1l-0.2,6.8l-6.7,0.2l0.2,6.7l-5.6,0.1l-14.5,0.3l-0.3-13.4l-0.2-20.2
										L508.6,45.9z"/>
								</g>
								<g id="region-svg_00000112592754849629972230000000554945577098748063_">
									<path class="st31" d="M302.9,73.7l2.2-0.1l24.3,0.3l0.1,20.6l-0.1,13.4l-6.7-0.1l-0.1,13.4l-19.5-0.2l-0.5,0l0.2-20.2
										l0.1-6.7L302.9,73.7z"/>
								</g>
								<g id="region-svg_00000088833079673502800120000000701546801709097380_">
									<path class="st32" d="M455.8,114.1l-0.2-16.8l3.2-0.1l6.8,0l13.3-0.2l3.4-0.1l0.2,10.1l3.3-0.1l0.2,13.4l-6.8,0.1l0,6.8
										l-3.3,0.1l0.1,6.7l-6.7,0.1l-6.7,0.1l-0.2-13.5l-6.6,0.1L455.8,114.1z"/>
								</g>
								<g id="region-svg_00000026158724059466492060000018172709650717156018_">
									<path class="st11" d="M256.5,127l46.6,0.8l-0.2,20.1l0.3,0l-0.3,8.2l-1.1-2l-0.7,0.6l-0.1-0.7l-1.3,0.4l-0.2,0.8l-1.3-0.3
										l-1,0.5l-0.3-0.7l-0.9,0.1l-0.3,0.8l-1-1.1l-38.5-0.6l0.1-6.8L256.5,127z"/>
								</g>
								<g id="region-svg_00000073722551559865885290000008016880069262867385_">
									<path class="st33" d="M336.2,134.7l4.9,0l0.7,1.4l0.4-0.2l2.8,1.3l0.5-0.8l0-1.4l0.9,0.1l0.7,1.5l1.2,0l-0.1,0.6l1.2-0.3
										l1.3-1l0.4,1.3l1.4,0.7l2.7,0.2l0.1-0.3l1-0.7l2.2,1.7l2-0.1l2.2-0.8l0.1,0.9l0.1,36.2l-0.1,13.4l-26.7-0.1l0.1-12.9
										l-0.2-0.5l0.1-18.1l0.1-8.8L336.2,134.7z"/>
								</g>
								<g id="region-svg_00000145773773412105829010000015364610251020098744_">
									<path class="st34" d="M376.1,9.7l4.8,0l0.8,0l13.9-0.1l1.6,0l0.1,0l1,0l0.2,0l3.8,0l0.6,0l3.3,0l0.5,0l2,0l0.8,0l0.3,0
										l0.8,0l0.1,0l1.6,0l0.5,0l2.7,0l1.7,0l0.2,0l2.6,0l0,4.5l0,12.3l-2.2,0l0,1.1l-2.1,0l0.1,1.4l-0.8,0.5l-2-0.7l-1.4,0.1
										l-1.1,1.2l-0.8,1.4l-0.7,2.4l-1.1,0.2l-1.1-0.4l-1.5,0.1l-0.7-0.4l-1.3,0l-0.4-0.6l-2.1,1.4l0.2,2.6l0.5,0.5l0.5,3.2
										l-0.8,0.7L376.2,41l-0.1,0L376.1,9.7z"/>
								</g>
								<g id="region-svg_00000065787881311427517940000013488485361409732753_">
									<path class="st35" d="M396.3,134.9l0-6.7l0.9,0l31.6-0.1l0.1,4.8l-1.9,0.7l-0.7-0.5l-3.4-1l-0.4-1l-0.9,0.4l-0.3,1
										l-2.1-0.3l0.3,39.5l-1.4-0.4l0-1.9l-1-1.1l-2.5,1.2l-2.1,0.2l-1.6-2.5l-1.3-0.4l-1.7,1l-0.6,1.3l-1.8,1.5l-1.3,0.6
										l-2.3-1.1l-1.2,0.1l-0.5-0.7L397,169l-0.6,0.5L396.3,134.9z"/>
								</g>
								<g id="region-svg_00000161593431487840558640000002510834039111216058_">
									<path class="st36" d="M363,134.9l15.6,0l6.7,0l11,0l0.1,34.7l-0.8-0.2l-2.6,0.2l-0.2-0.9l-1.2-0.3l-0.6,1l-0.3-0.8
										l-1.8-0.3l-0.8-1.4l-1.7-0.1l-0.5,0.8l-1.7-0.4l-0.5-2.4l-1-3.3l0.5-1.4l-0.2-2l-0.9-0.7l-2.1-0.1l0.1-3l-0.4-1l-2-0.7
										l-0.3-1l-4.5-3.2l-1.7-1l-1.3-1.6l-0.3-1l0.7-1.1l-0.4-2.3l-1.3-0.8l-2.3-0.2l-2.2-2.2L363,138L363,134.9z"/>
								</g>
								<g id="region-svg_00000086675068460863885620000010146016413937486465_">
									<path class="st37" d="M502.8,8.3l4.7-0.1l0.2,0l0.4,0l7.8-0.2l1.1,0l1.3,0l5-0.1l1.5,0l0.7,0l0.5,0l1.2,0l0.2,0l-1.6,0.4
										l0.3,1.7l0.6,0.9l1.8,0.8l-0.3,0.5l0.5,21l-0.2,5.6l0.2,6.8l-20,0.4l-0.2-6.8l-6.4,0.2l-0.6-26.7l1.5,0L502.8,8.3z"/>
								</g>
								<g id="region-svg_00000121249241524948113760000009728603572570434959_">
									<path class="st38" d="M409.7,175.2l0.1-0.6l0-7.8l1.3,0.4l1.6,2.5l2.1-0.2l2.5-1.2l1,1.1l0,1.9l1.4,0.4l1.3,0l0.9,2.3
										l0.9,0.9l2.1-0.9l0.5-1.1l-0.6-1.6l-1-0.6l0.7-1.4l2,0l1.3,2.1l1.6,0.2l1.7-0.5l1.2-0.8l1.3,0.2l0.1,1.2l0.6,1.2l1.1,1
										l1-0.5l1.4-2.7l2-0.5l1.5,1.1l1.1-0.5l0.6-1.8l0.2,1.7l0.1,10.9l0.1,6.8l-6.7,0.1l0,13.5l-20,0.1l0-6.7l-6.7,0l0-3.4
										L409.7,175.2z"/>
								</g>
								<g id="region-svg_00000071555495179703103380000002966366927326969495_">
									<path class="st11" d="M218.6,39l24.6,0.6l-0.5,26.7l0.5,0l-0.1,6.4l13.3,0.2l-0.1,11.7l-2.6,0l-1.9,0.5l-1.6,1.5l-1.2,0.5
										l-1.3,4.1l-2.2,1.9l-0.6,2.6l-2.7,0.7l-1.1,1.1l-2.1-0.7l-1.5-0.1l-2.4-0.7l-1.8-1.8l-0.9,0.1l-0.9-0.6l-0.2-0.7l-1.4-1.1
										l-0.5-1.4l0.2-2.4l0.4-0.9l-0.4-2.2l-1.8-0.6l-1.1,0.2l-1.3,1.2l-0.8,0l-1.3,1.6l-0.3,0.9l0.4,1.4l-1.3,1.7l-2.2,1
										l-0.8,0.9l-1.8,0.5l0.3-13.5l0.9-34.3l-0.2,0L218.6,39z"/>
								</g>
								<g id="region-svg_00000089548847900255436930000002534037967760351371_">
									<path class="st11" d="M253.2,8.4l3,0.1l1.9,0l6,0.2l1.8,0l7.3,0.1l0.3,0l4.6,0.1l1.3,0l1.8,0l0.4,0l7,0.1l0,0l0.7,0
										l4.5,0.1l0.2,0l0.1,0l1.9,0l2.7,0.1l0.2,0l10.5,0.1l0.3,4.4l0.1,26.9l-0.1,10.1l-0.1,5.1l-1.2-0.4l-2.5,0.8l-2-0.1
										l-4.6-1.9l-0.6-0.5l-1.1-1.8l-3.2-0.3l-1.9-1l-0.7-0.8l-1.5-2.8l-7.2-0.2l0.1-7.1l-0.7-0.1l-2.5-3.1l-0.6-0.2l0-1.5
										l-0.7-0.5l-0.8-1.5l0.2-0.7l-1-1.6l-1.4-0.5l-0.8-1.6l-1.8-1.6l-0.8-1.6l-1.6-0.6l-1.4,0.2l-1.3-0.3l-2.5,0.4l-1.2-0.4
										l-1.4-1.3l0-1.1l-1.3-1.8l0.2-1.1l-3.6-1.9l-1.4-3.3l-1.3-1.5l-1.3-4.2L253.2,8.4z"/>
								</g>
								<g id="region-svg_00000017506759311605115940000012554138579443392139_">
									<path class="st39" d="M428.9,132.8l1.5,0.3l0.8-1.1l0.6,0.7l1.4,0l-0.1,0.5l1.3,0.3l-0.1-1.5l-1.5-0.9l0.3-0.9l-0.8-0.3
										l0.9-1.3l2,1.2l0.2,0.6l1.4,0.2l0.8-0.9l-0.3-0.7l0.9-1.1l0.5,0.4l1.3-0.1l0.2-0.7l0.1,13.7l0.1,13.5l-3.1,0l0.1,15.8
										l-1.4,2.7l-1,0.5l-1.1-1l-0.6-1.2l-0.1-1.2l-1.3-0.2L431,171l-1.7,0.5l-1.6-0.2l-1.3-2.1l-2,0l-0.7,1.4l1,0.6l0.6,1.6
										l-0.5,1.1l-2.1,0.9l-0.9-0.9l-0.9-2.3l-1.3,0l-0.3-39.5l2.1,0.3l0.3-1l0.9-0.4l0.4,1l3.4,1l0.7,0.5L428.9,132.8z"/>
								</g>
								<g id="region-svg_00000020393611077894911700000005505640906559012283_">
									<path class="st40" d="M329.5,107.9l33.4,0.1l0,13.5l0.1,11.2l0,2.3l0,3l0,0.1l-2.2,0.8l-2,0.1l-2.2-1.7l-1,0.7l-0.1,0.3
										l-2.7-0.2l-1.4-0.7l-0.4-1.3l-1.3,1l-1.2,0.3l0.1-0.6l-1.2,0l-0.7-1.5l-0.9-0.1l0,1.4l-0.5,0.8l-2.8-1.3l-0.4,0.2l-0.7-1.4
										l-4.9,0l-13.2,0l0.1-10.8l-0.1-2.7l-0.3,0l0.1-13.4L329.5,107.9z"/>
								</g>
								<g id="region-svg_00000139295758383252882410000000766552513759771555_">
									<path class="st11" d="M333,218.7l8.5,0.1l0.3,0.1l27.9,0.1l0,15.9l0.1,0.9l0,5.3l1.6,1.5l-1.6,0l0,6.7l-1.4-0.3l-0.3-0.1
										l-0.1-0.1l-0.5-0.8l0-0.3l0-0.2l0.1-0.2l0.1-0.1l0.2-0.4l0.2-1.8l-0.1-0.1l-1.2-1.1l-1.6-1l-1.4-0.6l-0.3-0.1l-0.7-0.1
										l-1,0.4l-0.3,0.2l-0.3,0.5l-0.4,1.1l-0.4,0.6l-0.4,0.6l-0.6,0.5l-0.4,0.3l-0.1,0l-0.2,0l-0.1-0.1l-0.9,0l-0.6,0.2l0,0.3
										l0.2,0.4l0,0.5l-0.1,0.1l-0.2,0.2l-0.1,0.1l-0.5-0.1l-0.7,0.3l0.2,0.4l0.1,0.5l-0.1,0.3l-0.2,0.4l-1.1,0.4l-0.1,0.4
										l-0.1,0.2l-1.9,1.5l-2,0.6l-0.4,0l-0.4-0.1l-1.2-0.6l-0.6-0.4l-2-1.2l-0.2-0.1l-0.2,0l-0.2,0.1l-0.3,0l-0.5-0.1l-0.6-0.2
										l-0.4-0.3l-0.2-0.2l-0.4-0.6l-0.1-0.2l0-0.1l0.1-0.3l0.3-0.6l0.1-0.1l0.1,0l0.2,0.3l0.2,0.2l0.4-0.1l0.2-0.2l0.2-0.3
										l0.2-0.7l0.1-0.4l-0.1-0.6l-0.1-0.1l-0.1-0.1l-0.5,0.2l-0.2,0l-0.3-0.1l-0.1-0.1l-0.1-0.2l0-0.2l0.1-0.1l0.4-0.2l0.3-0.4
										l0.2-0.5l0.7-2.3l0-0.1l0-0.1l-0.1,0l-0.3,0.1l-0.2,0l-0.2-0.1l-0.3-0.3l-0.3-0.5l-0.2-0.4l-0.2-0.1l-0.3,0.1l-0.3,0.3
										l-0.3,0.2l-1.1,0.3l-0.9,0.2l-0.5,0.1l-0.9,0l-0.9-0.2l-1.8-0.5l-0.2-0.1l-0.2-0.2l-1-1.8l-0.1-0.2l0-0.2l0.1-0.2l0.1-0.1
										l0.2-0.1l0.1-0.1l0-0.2l0-0.3l-0.2-0.3l-1-1.1l-0.2-0.4l-0.2-0.4l-0.1-0.7l0.1-0.3l1-1.1l0.3-0.4l0.3-0.5l0.2-0.4l0.1-0.4
										l0.1-0.5l0-0.2l-0.7-1.3l-0.3-0.5l-0.2-0.1l-0.3-0.1l-0.6,0l-0.5,0.3l-0.4,0.4l-0.2,0.2L333,218.7z"/>
								</g>
								<g id="region-svg_00000021818098667933697050000008104887492038980028_">
									<path class="st11" d="M222.8,159.9l6.7,0.2l0.2-6.7l21.6,1l1.9-0.4l0.6,1.5l1.3,0.8l0.6-0.2l0.1,2.2l0.9,1.3l1.4,0.2
										l0.2,0.9l-0.7,3.2l-0.8,0.4l0.8,0.8l0.2,2.2l2,1.6l0.5,1.7l-0.1,1.2l-1.6,0l-0.1,1.1l0.7,1.1l1.5,0.7l0.3,0.7l1.4,0.2
										l0.6,1.1l-0.3,0.7l-9.9-0.2l0,3.4l-2-0.1l0,2.5l-0.3,0.5l1.2,0.4l-15.5-0.3l0-2.3l-1.1,0l0-1.1l-2.2-0.1l0.2-6.8l-0.7,0
										l0.2-6.7l-9.9-0.2L222.8,159.9z"/>
								</g>
								<g id="region-svg_00000003073125525256813870000004657426442631318961_">
									<path class="st11" d="M215.7,159.7l7,0.2l-0.1,6.7l9.9,0.2l-0.2,6.7l0.7,0l-0.2,6.8l2.2,0.1l0,1.1l1.1,0l0,2.3l-0.3,16.8
										l-11.3-0.2l-0.5-0.4l-1-1.2l-0.2-0.3l-0.1-0.3l-0.1-0.1L222,197l-0.4-0.4l-0.2-0.1l-0.2,0l-1.1-0.8l-0.4-0.3l-0.1-0.3
										l-0.4-0.2l-1-0.2l-0.6,0.1l-0.1,0.1l-0.1,0.2l0,0.1l-0.1,0.1l-0.4,0.4l-0.4,0.3l-0.2,0.1l-0.7,0.1l-0.7,0l-0.2,0l0.4-14.3
										l0,0L215.7,159.7z"/>
								</g>
								<g id="region-svg_00000160159977610260047520000002958050587547169725_">
									<path class="st41" d="M428.8,128l0.1-13.6l26.9-0.3l0.1,6.7l6.6-0.1l0.2,13.5l6.7-0.1l0.1,6.7l-0.7,0l-28.3,0.3l-0.1-13.7
										l-0.2,0.7l-1.3,0.1l-0.5-0.4l-0.9,1.1l0.3,0.7l-0.8,0.9l-1.4-0.2l-0.2-0.6l-2-1.2l-0.9,1.3l0.8,0.3l-0.3,0.9l1.5,0.9
										l0.1,1.5l-1.3-0.3l0.1-0.5l-1.4,0l-0.6-0.7l-0.8,1.1l-1.5-0.3L428.8,128z"/>
								</g>
								<g id="region-svg_00000097461502219772115790000016939801340443635359_">
									<path class="st11" d="M216.5,129.4l26.7,0.7l0.1-6.7l13.3,0.3l-0.1,3.4l-0.1,20.2l-0.1,6.8l-3.1,0l-0.1,0.2l-1.9,0.4
										l-21.6-1l-0.2,6.7l-6.7-0.2l-7-0.2l0.3-11.8L216.5,129.4z"/>
								</g>
								<g id="region-svg_00000036964656868160833290000002878510343014014866_">
									<path class="st12" d="M516.8,79.4l5.6-0.1l-0.2-6.7l6.7-0.2l13.3-0.3l0.6,20.1l-0.6,0l0.6,20.3l-20.1,0.5l-0.3-13.4
										l-8.7,0.2l0.8-1.6l1.3-1.4l0.2-0.9l-0.3-0.8l-1.6-0.3l-1.6-2l0-1.1l0.7-0.8l-0.1-1.4l-0.6-1.3l1.6-1.9l0.8,0l0.8-1.7
										l-0.1-2.4l1.1,0L516.8,79.4z"/>
								</g>
								<g id="region-svg_00000093891198441680913470000010688946966746186897_">
									<path class="st11" d="M161.4,6l2.5,0.1l0,0l0.8,0l2.2,0.1l2.5,0.1l0.5,0l2.5,0.1l0.5,0l1.4,0.1l3.6,0.1l2.6,0.1l0.2,0
										l2.4,0l2.4,0l0.1,0l21.6,0.5l0.5,0l0.1,0l0.3,0l4.5,0.1l1.6,0l5.2,0.2l0.2,0L218.6,39l-0.2,7.2l-5.4-0.1l-5.7-0.2l-8.1-0.2
										l0,0l0,0l-0.8,0l-0.7,0l-1.1,0l-1.7,0l-2.2-0.1l-0.5,0l-0.8,0l-0.5,0l-5-0.1l-0.5,0l0,0l-0.1,0l0,0l-0.9,0l-2-0.1l-0.3,0
										l0,0l-0.5,0l-3.5-0.1l-0.6,0l-3.2-0.1l-1,0l-2.3-0.1l-2.6-0.1l-0.2,0l-1.1,0l-1.7-0.1l-0.5,0l-1.5,0l-2.1-0.1l-1.1,0
										l-1.1,0l1-26.9l0.5,0L161.4,6z"/>
								</g>
								<g id="region-svg_00000060717985611348006650000016543679469935187119_">
									<path class="st42" d="M432.2,249.1l0.4-1l-0.9-2.7l1.2-1.6l-0.5-0.8l-0.6,0.2l-1.4-1.5l-0.6-1.4l1.3,0l0.7-0.7l0.7,0.7
										l0.6-1.1l0-1.3l1.7-2.1l-0.8-0.7l-0.4-1.2l-1.3-1.9l8.4-0.1l-0.1-3.3l3,0l26.6-0.3l2.5,0.6l0.3,1.5l0.7,0.3l0.2,13.7
										l0.2,0.5l1.1,1.3l2.6,0.7l0.7,0.7l0.5,1.4l1.4,1l2.3,0.9l-1,0.3l-0.1,0.1l0,0.1l0.1,0.4l0.1,0.2l0.1,0.3l0,0.1l-0.1,0.2
										l-0.1,0.1L481,253l-0.2,0.1l-0.4,0l-0.2-0.1l-0.3-0.2l-0.1-0.1l-0.3-0.3l-0.6-0.6l-1.4-0.6l-0.4-0.2l-0.4-0.3L476,250
										l-0.7-0.4l-0.4-0.2l-0.8-0.3l-0.1,0l-0.1,0.2l0,0.2l0.1,0.2l0,0.1l0,0.3l-0.1,0.3l-0.3,0.7l-0.2,0.2l-0.5,0.2l-1.3,0.1
										l-0.6-0.2l-0.2-0.4l-0.3-0.2l-0.2,0l-0.2,0.1l-0.2,0.1l-0.1,0.3l0,0.4l0,0.3l-0.1,0.1l-0.4,0.4l-0.9,0.4l-0.1-0.1l-0.1-0.1
										l0-0.2l0-0.2l0-0.2l-0.2-0.1l-0.3,0l-0.1,0.1l-0.4,0.7l-0.7,0.4l-0.4-0.2l-0.6-0.2l-1.3-0.4l-1-0.1l-0.1,0.1l0,0.1l0,0.1
										l0.1,0.1l0.1,0.3l0,0.4l-0.1,0.2l-0.3,0l-0.4-0.1l-0.5-0.4l-0.3-0.2l-1,0.1l-0.6,0.1l-0.1,0.1l-0.1,0.3l0.2,1l-0.1,0.2
										l-0.9,0l-0.7,0.2l-0.1,0.1l-0.1,0.3l0.1,0.4l0.2,0.2l0.1,0.1l0.2,0.1l0.3,0.1l0.3,0.1l0,0.6l-0.4,1.5l-0.3,0.5l-0.2,0.2
										l-0.6,0.3l-0.8,0.3l-1.3,0.4l-0.6,0l-1.2-0.8l-1.4-0.7l-0.5-0.1l-1,0.3l-0.1,0.1l-0.5,0.9l-0.1,0.2l-0.2,0.8l-0.1,0.5
										l0,0.6l0,0.5l-0.2,0.7l-0.4,0.9l-0.1,0.2l-0.2,0.1l-1.4,0.7l-0.4,0.1l-0.5-0.1l-0.4-0.3l-0.1-0.2l0-0.5l-0.2-0.8l-0.2-0.4
										l-0.6-0.7l-0.3-0.3l-1.3-1.2l-0.3-0.4l-0.3-0.5l-0.2-0.6l-0.1-0.2l-0.2-0.3l-0.2-0.2l-0.5-0.2l-0.4-0.1l-0.7-0.1l-0.2,0
										l-0.3,0.4l-0.2,0.1l-1.7,0.2l-0.9,0.1l-0.1-0.1l-0.6-0.6l-0.3-0.5l0-0.8l0-0.3l-0.2-0.6l-0.3-0.5l-0.2-0.2l-0.2-0.1
										l-0.2-0.1l-1.1,0.3l-1,0.1l-0.4,0l-0.9-0.7L432,254l-0.6-0.3l-1.4-0.5l-0.4-0.3l-0.1-0.2l0-0.2l0-0.1l0.2-0.3l0.8-1
										l0.6-0.3l0.3-0.2l0.5-0.4l0.2-0.3l0.1-0.3l0-0.2L432.2,249.1L432.2,249.1z"/>
								</g>
								<g id="region-svg_00000041293544943245524610000007237303815554425221_">
									<path class="st43" d="M523.5,227.4l0.2-6.7l6.7-0.1l-0.5-20.4l6.9-0.1l0.3,0l30-0.9l0.1,6.8l0,0.4l0,0.9l0,3.3l0,0.6
										l0.1,12.5l0.1,13l0,0.2l0,4.8l0,0.3l0,1l0,0.3l0,4.3l0,0l0,2.3l0,1.6l0,2.1l0,0l0,0.5l0,0.5l0,2.5l0,0.2l0,0.2l0,0l0,2.6
										l0,0.4l0,1.5l0,0.3l0,1.9l0,0.8l0,1.2l-0.1,0.7l-0.2,0.3l-0.8,0.4l-1,0.3l-0.3-0.2l-0.2-0.2l0-0.4l0.1-0.2l-0.1-0.4
										l-0.3-0.2l-0.3,0l-0.3,0.2l-0.3,0l-0.3-0.2l0-0.3l0.1-0.2l0-0.4l0-0.3l-0.3-0.2l-0.5,0.1l-0.3,0.1l-0.1,0l-0.1-0.2l0-0.2
										l0.1-0.3l0-0.2l-0.2-0.3l-0.3-0.3l-0.2-0.3l-0.5-0.1l-0.2,0.1l-0.2,0.3l-0.2,0.2l-0.4,0l-0.3,0l-0.3-0.2l-0.4-0.3l-0.3-0.1
										l-0.4,0.3l-0.2,0.3l-0.3,0.3l-0.5,0.1l-0.2-0.1l-0.2-0.3l0-0.5l0-0.3l-0.1-0.3l-0.2-0.2l-0.4-0.1l-1.6,0.7l-1.5-0.2
										l-0.1-0.1l-0.1-0.3l0-0.3l0.1-0.3l-0.1-0.4l-0.3-0.1l-0.3-0.1l-0.2,0.1l-0.1,0.1l-0.1,0.2l-0.1,0.2l-0.3,0l-0.3-0.3l0-0.1
										l-0.1-0.3l0.1-0.5l-0.1-0.5l-0.2-0.3l-0.7-0.2l-0.4,0l-0.3-0.2l-0.3-0.4l0-0.4l0.1-0.4l0-0.2l-0.1-0.2l-0.2,0l-0.3,0
										l-0.9,0.7l-0.6,0.1l-0.7-0.4l-0.2-0.2l-0.3,0l-0.3,0.1l-0.2,0.1l-0.1,0.4l-0.1,0.2l-0.2,0.1l-0.7,0.1l-0.5,0l-1.3-0.5
										l-0.3-0.2l-0.2-0.2l0.1-0.3l0-0.4l-0.2-0.3l-0.2,0l-0.3,0.1l-0.1-0.2l-0.9-0.7l-0.3-0.2l-0.3,0l-0.5-0.6l0-0.3l0-0.3
										l0.2-0.6l0-0.2l-0.1-0.3l-0.1-0.1l-0.2-0.1l-0.2,0l-0.2,0l-0.2,0.1l-0.2,0.1l-0.2,0l-0.3-0.1l-0.3-0.4l0-0.6l-0.5-0.7
										l-0.4-0.1l-0.1-0.9l-0.2-1l-0.2-0.1l-0.1,0l-0.2,0.1l-0.3,0.6l-0.1,0.1l-0.3,0l-0.3-0.1l-0.2-0.4l-0.3-0.4l-0.5-0.3
										L533,250l-0.4,0.1l-0.9,0l-0.6-0.1l-0.2-0.1l-0.7-1.7l-0.2-0.7l-0.3-0.3l-0.4-0.1l-0.5,0.2l-0.3,0.4l-0.4,0l-0.2-0.2
										l-0.1-0.2l0-0.4l-0.2-0.4l-0.2-0.2l-0.2-0.1l-0.5,0.1l-0.6-0.2l-0.2-0.2l0-0.2l0-0.7l-0.2-0.2l-0.4-0.2l-1.2,0.1l-0.4,0
										L523.5,227.4z"/>
								</g>
								<g id="region-svg_00000059269378752183357480000004778507122585734035_">
									<path class="st11" d="M256.3,153.9l38.5,0.6l1,1.1l0.3-0.8l0.9-0.1l0.3,0.7l1-0.5l1.3,0.3l0.2-0.8l1.3-0.4l0.1,0.7l0.7-0.6
										l1.1,2l-0.2,18.7l-13.1-0.2l-0.3,20.1l-11.1-0.2l0.1-3.3l-6.5-0.1l0.5-2.4l3.3-0.6l0.4-0.8l-1-1.2l-2.9,0.5l-3.2-0.6
										l-0.6-0.6l0.3-1.1l-1.1-2.4l1.3-0.4l-0.8-1l0.8-2.4l0.2-3l0.4-0.5l-1.7,0l-0.7-0.8l-0.7,1.2l-1.3,0.4l0,1l-2.1,0.3
										l-0.6-1.1l-1.4-0.2l-0.3-0.7l-1.5-0.7l-0.7-1.1l0.1-1.1l1.6,0l0.1-1.2l-0.5-1.7l-2-1.6l-0.2-2.2l-0.8-0.8l0.8-0.4l0.7-3.2
										l-0.2-0.9l-1.4-0.2l-0.9-1.3l-0.1-2.2l-0.6,0.2l-1.3-0.8l-0.6-1.5l0.1-0.2L256.3,153.9z"/>
								</g>
								<g id="region-svg_00000065040844534018947070000010605313735852030399_">
									<path class="st11" d="M219.5,7.5L219.5,7.5l0.4,0l7.4,0.2l5.5,0.2l0.7,0l0,0l7.2,0.2l0.5,0.1l1.4,0l4.2,0.1l1,0l2,0l0.3,0
										l0.1,0l0.1,0l0,0l1,0l1.8,0l0.8,0.3l1.3,4.2l1.3,1.5l1.4,3.3l3.6,1.9l-0.2,1.1l1.3,1.8l-0.3,17.3l-19.3-0.2L218.6,39
										L219.5,7.5z"/>
								</g>
								<g id="region-svg_00000178912386535769282670000009881612997957944222_">
									<path class="st44" d="M482.3,97l7.2-0.2l0.7,1.7l0.2,3.7l1.1,0.7l1.2,0l0.8,1l1.6-1.8l2.8-0.4l2.5-0.9l3.6,0.3l3.7-1.8
										l1,0.6l4.9-0.1l8.7-0.2l0.3,13.4l0.2,6.7l-0.3,2l0.8,1.5l1.8,2l0.5,1.4l1.5-0.3l0.7,0.5l-1.2,0.8l-0.7,1.2l-0.3,2.1l-1,0.7
										l-1.3,2l-1-0.6l-1.3,0.9l1.2,1.1l-0.6,0.8l-1.6-0.3l-0.4,1.1l0.8,2l-0.4,0.7l-1.4-0.1l-0.3,1.1l-1.1,1.4l-1.1,0.7l-1.4-0.5
										l-1.7-2l-1.5-0.6l-2.1,0.8l-0.5-20l-0.8,0l-22.3,0.4l-0.2-13.4l-3.3,0.1L482.3,97z"/>
								</g>
								<g id="region-svg_00000068648091771463150960000015253642536791748228_">
									<path class="st13" d="M336.3,40.9l39.8,0.1l0.1,0l0.1,33.1l-13.4,0L336.5,74l-0.4,0l0.1-23L336.3,40.9z"/>
								</g>
								<g id="region-svg_00000182521943822478437430000015128649012597312697_">
									<path class="st11" d="M224.6,200.3l11.3,0.2l0.3-16.8l15.5,0.3l-1.2-0.4l0.3-0.5l0-2.5l2,0.1l0-3.4l9.9,0.2l0.3-0.7
										l2.1-0.3l0-1l1.3-0.4l0.7-1.2l0.7,0.8l1.7,0l-0.4,0.5l-0.2,3l-0.8,2.4l0.8,1l-1.3,0.4l1.1,2.4l-0.3,1.1l0.6,0.6l3.2,0.6
										l2.9-0.5l1,1.2l-0.4,0.8l-3.3,0.6l-0.5,2.4l1.5,1.5l-0.6,0.3l0.3,1.9l-1.1-0.3l-1.4,0.5l-0.7-0.3l-2,0.3l-1.4,2l0.4,1.7
										l-1.2-0.2l-0.9,3.1l-0.7,0.5l0,2.3l0.5,0.6l-1,0.3l0.3,1.5l-0.4,1l-0.6-0.4l0.6,2.9l1.2-0.1l-0.7,1.1l0.8,0l0.9,1.5
										l-0.4,1.2l-0.8,0.3l-0.1-0.3l-0.3-0.1l-0.2,0L264,214l-0.3,0l-0.2-0.1l-0.2-0.2l0-0.1l-0.1-0.7l-0.2-0.7l-0.3-0.8l-0.4-0.3
										l-0.2,0.1l-0.2,0.2l-0.2,0l-0.8-0.7l-0.2-0.3l0-0.1l0.1-0.1l0.6,0l0.2-0.1l0.1-0.1l-0.1-1l-0.2-0.1l-1.6-0.7l-0.3-0.1
										l-0.3,0.1l-0.6,0.3l-0.5,0.1l-0.1,0l-0.1,0l-0.3-0.5l-0.3-0.6l-0.3-0.4l-0.5-0.3l-0.6-0.5l-0.4-0.4l0-0.2l0-0.1l0.1-0.2
										l0-0.2l-0.2-0.3l-0.7-0.3l-0.4,0l-0.3,0.2l-0.9,1.1l-0.2,1.4l0,0.4l0,0.1l0.2,0.2l0.1,0.7l-0.4,2.1l-0.2,0.2l-0.2,0.1
										l-0.2,0l-0.1,0l-0.7-0.6l-0.7,0.5l-0.6-0.1l-0.2-0.5l-0.5-0.6l-1.2-0.7l-0.3,0l-0.2,0l-0.6-0.1l-0.2-0.1l-0.2-0.4l-0.2-0.2
										l-0.2-0.2l-0.9-0.3l-0.2-0.1l-0.4,0.2l-0.4,0l-1.2-0.1l-0.4-0.1l-0.4-0.2l-0.5-0.1l-0.3,0l-0.4,0.1l-0.3,0.7l-0.1,0.7
										l0.1,0.5l-0.1,0.2l-0.2,0.2l-0.6,0.7l-0.2,0.2l-1.5,0l-0.4-0.2l-1.2-0.3l-0.3,0.3l-0.3,0.2l-0.2,0l-0.2,0l-0.3-0.3
										l-0.5-0.2l-1.1-0.1l-0.7-0.5l-0.3-0.3l-0.1-0.3l0-0.2l-0.1-0.2l-0.1-0.2l-0.2-0.3l-0.6-0.4l-0.7-0.3l-0.8-0.5l-0.8-0.7
										l0-0.1l0.2-0.3l0-0.1l-0.1-0.1l-0.6-0.5l-0.5,0l-0.7-0.8l-1.3-1.8l-0.3-0.7l0.1-0.2l-0.4-0.8l-0.5-0.2L224.6,200.3z"/>
								</g>
								<g id="region-svg_00000180349730704671377180000007451292287710850458_">
									<path class="st45" d="M478.6,53.2l-0.2-13.4l0.2,0l23.4-0.4l6.4-0.2l0.2,6.8l-6.6,0.1l0.2,20.2l0.3,13.4l-8.2,0.1l-0.4-0.7
										l1.4,0.1l0.2-0.7l-1-1.2l0-1.7l-1.6-0.6l-0.7,0.3l-0.9-1.3l0-1l-6.7,0.1l-2.2,0l-3.4,0.1l0.1-6.7l-0.2-7.8l0-3.3l1.1,0
										l-0.1-2.3L478.6,53.2z"/>
								</g>
								<g id="region-svg_00000082365389403257852650000014283714280874662585_">
									<path class="st46" d="M363.1,175.2l46.6,0l0.1,16.8l-13.4,0l0,1.1l-3.7,0l0.7,2.1l0.9,0l0.7,1.8l-0.7,0.1l1.2,1.6l-0.4,0.3
										l0.4,2l0.8,1.2l-13.3,0l-13.4,0l0,0l0-13.4l-6.7,0L363.1,175.2z"/>
								</g>
								<g id="region-svg_00000066512137273638600110000002418305438280372902_">
									<path class="st11" d="M299.7,209.5l3.4,0l0-1.1l6.7,0.1l0-2.3l13.3,0.2l0-1.1l3.3,0l0.1-3.4l6.5,0.1l0.2,0.2l-0.1,16.6
										l-0.1,11.4l-0.2,0.4l-0.8,1.1l-0.2,0.2l-0.7,0.5l-1.4-0.1l-0.6-0.1l-0.2-0.1l-0.8-0.3l-0.5-0.3l-0.1-0.2l-1-0.5L326,231
										l-0.6,0.1l-1.5-0.1l-0.9-0.2l-0.4-0.1l-1.2-0.9l-0.2-0.3l-0.2-0.1l-2.5-0.5l-0.2,0.1l-0.9,0.5l-0.2,0.2l-0.9,1.4l-0.2,0.5
										l0,0.1l0.2,0l0,1.3l-0.1,0.3l-0.9,1.2l-0.2,0.2l-0.1,0l-0.2-0.1l-0.1,0l-0.1-0.1l-0.2-0.1l-0.2,0l-0.5,0.1l-0.2,0.1
										l-0.1,0.1l-0.1,0.2l0,0.2l0,0.1l-0.2,0.1l-1.7,0.7l-0.4,0.2l-0.3,0l-1.1-0.8l-1.5-1.8l-0.2-0.4l-0.3-0.6l-1-0.9l-0.5-0.7
										l-0.1-0.4l-0.8-0.9l-0.3-0.3l-1.4-0.9l-0.3,0l-0.3,0.2l-0.1,0l0.2-13.7l-3.3,0L299.7,209.5z"/>
								</g>
								<g id="region-svg_00000170278626009522301710000006702098977698317230_">
									<path class="st47" d="M420.1,9.5l0.5,0l0.3,0l1.6,0l0.3,0l11.1-0.1l1.6,0l5.2-0.1l1.3,0l7.1-0.1l0.2,0l3.6,0l1.1,0l1,0
										l1.9,0l0.1,0l0.1,0l0.1,0l0.3,0l0.1,0l8.6-0.1l0.7,44.4l0.3,20.3l-16.7,0.2l0-0.9l1.3-1.4l0.1-1.8l-0.7-0.9l-2.8-0.2
										l-1.6,0.2l-1.5-0.8l-2.2-2.3l-2.2-0.8l-0.7-0.7l-0.8-2.7l-0.7-0.9l-1.8,0.2l-0.9,1.8l-0.8,0.7l-2.3-0.1l-1.3-1.2l0-1.2
										l0.9-1.3l1.5-0.6l0.9-1.5l-0.5-1.4l-0.9-0.5l-2.1,2l-1.6-0.6l-0.3-1.6l-0.9-0.5l-1-1.2l-2.4,0.4l-0.9-0.3l-1.3-1l-0.4-1.3
										l0.7-1.7l-0.2-1.1l-1-0.9l0.1-1.3l-0.9-2.3l-1-1l-1-0.2l-1.8,0.9l-1.4,1.1l-1,1.4l0,0.7l-0.8,1.6l-1.5,1.6l-2.3,0.3l-1.7,1
										l-1.7-0.3l-2.4-2l-0.3-1.6l0.8-1.7l1.1-0.5l1.3,0.1l2.1-1.4l1.4,0.1l0.9-1.8l-1.5-1.8l-0.5-0.1l-1.7,0.8l-3.4,0.6l-2-0.3
										l-1.4-0.6l0.8-0.7l-0.5-3.2l-0.5-0.5l-0.2-2.6l2.1-1.4l0.4,0.6l1.3,0l0.7,0.4l1.5-0.1l1.1,0.4l1.1-0.2l0.7-2.4l0.8-1.4
										l1.1-1.2l1.4-0.1l2,0.7l0.8-0.5l-0.1-1.4l2.1,0l0-1.1l2.2,0l0-12.3L420.1,9.5z"/>
								</g>
								<g id="region-svg_00000022551463307105870690000005507124523910859940_">
									<path class="st11" d="M94.6,3.6l1.7,0.1l6,0.2l18.5,0.7l0.1,0l2.8,0.1l2.2,0.1l2.1,0.1l4.3,0.1l0.1,0l2.2,0.1l1.1,0l0.1,0
										l8.9,0.3l0.1,0l8.9,0.3l0,0l0.8,0l2.5,0.1l1,0l3.1,0.1l0,0l-0.4,11.5l-0.5,0l-1,26.9l-1.4-0.1l-4.2-0.2l-0.5,0l-2,0
										l-33.4-1.3l-1.6-0.1l-0.2,0l-2.8-0.1l-0.7-0.1l-4.3-0.2l-0.1,0l-0.1,0l-0.1,0l-0.3,0l-2.4-0.1l-6.4-0.4l-6.3-0.3l1.3-26.9
										l0.3-0.3L94.6,3.6z"/>
								</g>
								<g id="region-svg_00000010312889679133339780000015675389791658090641_">
									<path class="st48" d="M522.6,112.9l20.1-0.5l21-0.6l0.6,3.4l0,0.4l0,0.1l0.1,0.3l1.1,6.6l1.4,7.9l0,0l-0.2,0.5l0,0.1
										l-0.8,0.5l-2.1,0.7l-0.4,0.6l0.4,1l-0.9,0.8l0,1l0.9,1.5l-0.7,0.6l-1.6-0.5l-1,0.4l-1.4-0.4l-1-1.2l-1.6-0.1l-1.3,1.9
										l-2,1.1l-1.3-0.3l-0.6-0.8l-0.4-1.6l-1.4-0.5l-1.3-1.2l-1.5-0.5l-1.8,0.5l-1,1.9l-1.2,0.3l-0.9-1.1l-0.1-1.9l-1-0.7
										l-1.3,1.1l-2.2,0.8l-0.8,0l-0.3-0.5l1.5-1.5l0.1-0.9l-0.6-1l-1.5,0.4l-1.5-1.1l-2.4,0l-1.3-0.4l-1.2-1.3l-0.1-1.7l-1.6-0.4
										l-0.7-0.5l-1.5,0.3l-0.5-1.4l-1.8-2l-0.8-1.5l0.3-2L522.6,112.9z"/>
								</g>
								<g id="region-svg_00000097498105554396682470000007769587893142583694_">
									<path class="st49" d="M382.9,74.5l13.3,0l0-6.7l13.4-0.1l6.6,0l0,6.8l12.3-0.2l0.2,16.9l-32.4,0.2l-0.2-1l-1.8,1l-1.9-0.3
										l-1.1-1.5l-1.4-0.6l-2-0.1l-0.7-0.6l-0.5-1.9l-1.8-0.4l-1.9,2L382.9,74.5z"/>
								</g>
								<g id="region-svg_00000069355720171122909520000003120454643686317486_">
									<path class="st50" d="M448.7,73.8l1.8,0l16.7-0.2l-0.3-20.3l11.7-0.2l1.1,0l0.1,2.3l-1.1,0l0,3.3l0.2,7.8l-0.1,6.7l3.4-0.1
										l0.4,20.2l-3.6,0l0,3.5l-13.3,0.2l0.2-3.4l-0.1-6.7l-0.1-6.7l-16.7,0.2L448.7,73.8z"/>
								</g>
								<g id="region-svg_00000170970376073357264670000013867895858407656355_">
									<path class="st51" d="M404.2,47.6l0.3,1.6l2.4,2l1.7,0.3l1.7-1l2.3-0.3l1.5-1.6l0.8-1.6l0-0.7l1-1.4l1.4-1.1l1.8-0.9l1,0.2
										l1,1l0.9,2.3l-0.1,1.3l1,0.9l0.2,1.1l-0.7,1.7l0.4,1.3l1.3,1l0.9,0.3l2.4-0.4l1,1.2l0.9,0.5l0.3,1.6l1.6,0.6l2.1-2l0.9,0.5
										l0.5,1.4l-0.9,1.5l-1.5,0.6l-0.9,1.3l0,1.2l1.3,1.2l2.3,0.1l0.8-0.7l0.9-1.8l1.8-0.2l0.7,0.9l0.8,2.7l0.7,0.7l2.2,0.8
										l2.2,2.3l1.5,0.8l1.6-0.2l2.8,0.2l0.7,0.9l-0.1,1.8l-1.3,1.4l0,0.9l-1.8,0l-20,0.1l-0.1,0.3l-12.3,0.2l0-6.8l-6.6,0l0-6.7
										l-6.7,0l-0.1-13.4L404.2,47.6z"/>
								</g>
								<g id="region-svg_00000030451985951194554190000008170685422014954906_">
									<path class="st52" d="M409.9,215.5l3.3,0l-0.1-13.4l3.4,0l20-0.1l0.1,6.6l6.8,0l0.2,20.1l-3,0l0.1,3.3l-8.4,0.1l0.2-0.9
										l-1.6-1.1l-0.9-1.7l-0.5,0.7l-1-1.1l-0.8,0.5l-0.9-0.8l-16.9,0.1L409.9,215.5z"/>
								</g>
								<g id="region-svg_00000037660756158007002580000009449785796981262749_">
									<path class="st53" d="M469.5,140.9l-0.1-6.7l6.7-0.1l-0.1-6.7l3.3-0.1l0-6.8l6.8-0.1l22.3-0.4l0.8,0l0.5,20l-2.9-2.6
										l-1.3,0.3l-1,1.4l-1.5,0.8l-0.6,0.3l-2.5-0.6l-1.2,1.7l0.4,1l-1.9,1.1l-1.8,0.6l-1.8,1.8l-0.9,0l-0.2-0.7l0.8-0.4l-0.2-1.1
										l-1.2,0.2l-2.7,1.6l-0.7,0.9l0.5,0.6l-2.1,0.5l-0.5,1l-1.7-0.2l-0.8,1.2l-0.8-0.1l-1.6-1.4l-2.9,1.1l-2-0.1l-1.1,2.4
										l-1.2,0.9l-1.3,0l-2.2-0.7l-1.3,0.1L469.5,140.9z"/>
								</g>
								<g id="region-svg_00000039855078771921317770000017556558558153050802_">
									<path class="st54" d="M407.7,235.7l0.1-7.8l2.2,0l16.9-0.1l0.9,0.8l0.8-0.5l1,1.1l0.5-0.7l0.9,1.7l1.6,1.1l-0.2,0.9
										l1.3,1.9l0.4,1.2l0.8,0.7L433,238l0,1.3l-0.6,1.1l-0.7-0.7l-0.7,0.7l-1.3,0l0.6,1.4l1.4,1.5l0.6-0.2l0.5,0.8l-1.2,1.6
										l0.9,2.7l-0.4,1l-0.3-0.1l-1,0.1l-1.3,0l-0.1-0.1l-0.9-0.8l-1-0.8l-0.3-0.1l-0.2,0l-0.2,0.2l-0.2,0.2l-0.1,0.2l-0.4,1
										l-0.1,0.9l0.1,0.6l0,0.2l-0.1,0.8l-0.2,0.6l-0.2,0.3l-0.6,0.9l-0.3,0.3l-0.2,0.2l-0.3,0.1l-2.1,0.5l-0.5,0.1l-0.5,0
										l-0.3-0.1l-0.2-0.2l-0.1-0.2l-0.4-1l0-0.5l-0.2-0.8l-0.1-0.2l-0.2-0.3l-0.7-0.4l-1.2-0.3l-1.2-0.2l-0.3,0.3l-0.2,0.2
										l-0.1,0.3l-0.1,0.8l-0.2,0.3l-0.3,0.1l-0.3,0l-0.7-0.4l-0.6-0.6l-0.5-0.6l-0.8-2.2l-0.1-0.5l0-0.8l-0.2-1.6l-0.2-0.6
										l-0.2-0.4l-0.1-0.2l-0.3-0.3l-0.3-0.3l-0.1-0.1l-0.2-0.1l-0.1,0l-0.5,0.3l-0.2,0.1l0-4.5l-2.2,0L407.7,235.7z"/>
								</g>
								<g id="region-svg_00000104707741589625801510000001017652287590743172_">
									<path class="st55" d="M383.2,202.1l13.3,0l-0.8-1.2l-0.4-2l0.4-0.3l-1.2-1.6l0.7-0.1l-0.7-1.8l-0.9,0l-0.7-2.1l3.7,0l0-1.1
										l13.4,0l0,3.4l6.7,0l0,6.7l-3.4,0l0.1,13.4l-3.3,0l-6.1,0l-0.9-0.9l0.7-0.5l-0.3-1.9l-20.1,0L383.2,202.1z"/>
								</g>
								<g id="region-svg_00000158000848905780148740000015361377768826677660_">
									<path class="st33" d="M463.1,181.4l-0.1-6.7l0-15.1l1.2-0.5l0.4-2.4l1.3-1.3l0.7-1.2l1.3-0.2l-0.3-1.5l0.6-0.6l1.3-0.2
										l1.3-0.1l2.2,0.7l1.3,0l1.2-0.9l1.1-2.4l2,0.1l2.9-1.1l1.6,1.4l0.8,0.1l0.8-1.2l1.7,0.2l0.5-1l2.1-0.5l-0.5-0.6l0.7-0.9
										l2.7-1.6l1.2-0.2l0.2,1.1l-0.8,0.4l0.2,0.7l0.9,0l1.8-1.8l1.8-0.6l1.9-1.1l-0.4-1l1.2-1.7l2.5,0.6l0.6-0.3l0.2,7.2
										l-0.2,3.3l6.7-0.1l0.2,7.9l0,2.3l-10,0.2l-0.1,13.5l0.2,13.4l0.1,6.7l-10,0.2l-13.4,0.3l-0.1-6.7l-13.3,0.2L463.1,181.4z"
										/>
								</g>
								<g id="region-svg_00000012465194110186477850000007340571273757886629_">
									<path class="st11" d="M271.9,191.1l6.5,0.1l-0.1,3.3l11.1,0.2l-0.1,6.7l10.4,0.1l-0.1,7.8l-0.1,5.6l3.3,0l-0.2,13.7l-0.1,0
										l-0.3,0l-0.3-0.1l-0.9-0.4l-0.5-0.2l-0.3,0l-0.2,0.1l-0.3,0.4l-2.2,1.9l-0.4-0.1l-1.2-0.2l-0.1,0l-1.1,0l-0.1,0.1l-0.1,0.1
										l0,0.2l-0.2,0.3l-0.2,0.2l-0.5,0.1l-0.5-0.1l-0.2-0.2l0-0.2l-0.1-0.3l-0.1-0.1l-0.2-0.2l-1.7-0.6l-0.9-1l-0.4-0.2l-1.2-0.3
										l-1.5,0l-0.1,0l0,0.1l0,0.6l-0.1,0.2l-0.2,0.1l-0.3,0l-0.3-0.3l-0.1-0.2l0-0.1l0.2-0.3l0.1-0.2l0-0.2l-0.1-0.1l-2.3-0.9
										l-0.6-0.3l-0.2-0.1l-0.2-0.2l-0.2-0.4l-0.1-0.1l-0.8-0.9l-0.6-0.6l-0.1-0.1l-0.4-0.1l-0.2,0.1l-0.1,0.1l0,0.4l0,0.1
										l-0.3,0.3l-0.2,0l-0.3-0.2l-0.2-0.2l-0.1-0.3l-0.2-0.6l-0.4-0.3l-0.2,0l-0.7,0.3l-0.2,0.3l0,0.4l-0.2,0.2l-0.5,0.2
										l-1.5-0.3l-0.1,0l-0.1,0.1l-0.1,0.3l-0.2,0.2l-0.3,0l-0.6-0.2l0-0.1l0-0.1l-0.1-0.1l-0.4-0.3l-0.6-0.2l-0.2,0l-0.8,0.2
										l-1.1,0.4l-0.7,0.1l-0.5-0.1l-0.2-0.1l-0.1-0.2l0-0.1l0.1-0.2l0.2-0.1l0.1-0.1l-0.1-0.2l-0.1-0.1l-0.2-0.1l-0.5,0l-0.4,0.3
										l-1,0.4l-1.9-0.5l-0.2-0.2l0-0.2l0.1-0.3l0.1-0.4l0-0.2l-0.1-0.2l-0.3-0.6l-0.1-0.3l0.1-1.3l0.1-0.9l-0.1-0.7l0,0l-0.2,0
										l-0.2-0.1l-0.2-0.1l-0.2-0.2l-0.1-0.5l-0.1-1.4l0.1-0.3l0.1-0.8l0-0.9l0.8-0.3l0.4-1.2l-0.9-1.5l-0.8,0l0.7-1.1l-1.2,0.1
										l-0.6-2.9l0.6,0.4l0.4-1l-0.3-1.5l1-0.3l-0.5-0.6l0-2.3l0.7-0.5l0.9-3.1l1.2,0.2l-0.4-1.7l1.4-2l2-0.3l0.7,0.3l1.4-0.5
										l1.1,0.3l-0.3-1.9l0.6-0.3L271.9,191.1z"/>
								</g>
								<g id="region-svg_00000152979499395207111360000009344952848689401751_">
									<path class="st56" d="M502.9,139.8l1.5-0.8l1-1.4l1.3-0.3l2.9,2.6l2.1-0.8l1.5,0.6l1.7,2l1.4,0.5l1.1-0.7l1.1-1.4l0.3-1.1
										l1.4,0.1l0.4-0.7l-0.8-2l0.4-1.1l1.6,0.3l0.6-0.8l-1.2-1.1l1.3-0.9l1,0.6l1.3-2l1-0.7l0.3-2.1l0.7-1.2l1.2-0.8l1.6,0.4
										l0.1,1.7l1.2,1.3l1.3,0.4l2.4,0l1.5,1.1l1.5-0.4l0.6,1l-0.1,0.9l-1.5,1.5l0.3,0.5l0.8,0l2.2-0.8l1.3-1.1l1,0.7l0.1,1.9
										l0.9,1.1l0.2,9.4l-7.2,0.2l0.3,11.1l-26.6,0.6l-0.2-7.9l-6.7,0.1l0.2-3.3L502.9,139.8z"/>
								</g>
								<g id="region-svg_00000135663892588880179780000006061946399180627135_">
									<path class="st57" d="M363,138l1.2,0.3l2.2,2.2l2.3,0.2l1.3,0.8l0.4,2.3l-0.7,1.1l0.3,1l1.3,1.6l1.7,1l4.5,3.2l0.3,1l2,0.7
										l0.4,1l-0.1,3l2.1,0.1l0.9,0.7l0.2,2l-0.5,1.4l1,3.3l0.5,2.4l1.7,0.4l0.5-0.8l1.7,0.1l0.8,1.4l1.8,0.3l0.3,0.8l0.6-1
										l1.2,0.3l0.2,0.9l2.6-0.2l0.8,0.2l0.6-0.5l3.4,0.4l0.5,0.7l1.2-0.1l2.3,1.1l1.3-0.6l1.8-1.5l0.6-1.3l1.7-1l0,7.8l-0.1,0.6
										l-46.6,0L363,139l-0.1-0.9L363,138z"/>
								</g>
								<g id="region-svg_00000173127337883851768680000005396386949776440249_">
									<path class="st11" d="M283.2,47l7.2,0.2l1.5,2.8l0.7,0.8l1.9,1l3.2,0.3l1.1,1.8l0.6,0.5l4.6,1.9l2,0.1l2.5-0.8l1.2,0.4
										l0.1-5.1l26.7,0.2l-0.1,23l-6.6,0l-24.3-0.3l-2.2,0.1l-19.9,0l0.1-6.6L283.2,47z"/>
								</g>
								<g id="region-svg_00000010302351974652585310000018280522247251617168_">
									<path class="st11" d="M369.9,235.7l37.8-0.1l0,4.5l2.2,0l0,4.5l-0.6,0.4l-0.5,0.4l-1.3,0.7l-0.1,0l-0.2-0.2l-0.2-0.3
										l-0.1-0.6l0-0.2l0.1-0.3l0-0.1l-0.1,0l-0.4,0.1l-0.2,0.2l-0.2,0.3l-0.1,0.2l-0.1,0.4l0.1,0.7l0.1,0.2l0.3,0.8l0.3,1l0.1,1
										l-0.1,0.4l-2,2.8l-0.4,0.5l-1,0.5l-0.1,0.1l-0.7-0.7l-0.3-0.7l-0.8-0.3l-1.2,0.5l-0.2,0.7l0.4,0.3l1.6,0.4l0.6,0.7l0,0.6
										l-1.3,0.2l-0.7,0.1l-0.6,0.3l-0.2,0.4l-0.2,0.4l0,0.3l0.1,0.4l0.4,1.1l0.2,0.7l0,0.4l0,0.5l-0.1,0.7l-0.3,0.7l-0.2,0.3
										l-0.2,0.2l-0.5,0.4l-0.3,0.2l-0.3,0.1l-0.5,0.1l-0.3,0l-0.7-0.1l-0.8-0.3l-0.3-0.2l-0.5-0.4l-0.6-0.6l-0.6-1.4l-0.4-1.1
										l-0.2-0.9l-0.3-0.3l-0.6-0.9l-0.1-0.3l0-0.6l0.1-0.7l0.1-0.2l0.2-0.4l0.1-0.2l0.1-0.1l0.1,0l0.5,0l0.3-0.1l0.6-0.3l0.3-0.4
										l0-0.5l-0.9-3.5l-0.1-0.2l-0.3-0.4l-1.3-1.1l-0.3-0.1l-1,0.1l-1,0.6l-0.2,0.3l-0.1,0.2l-0.2,1.9l-0.3,0.8l-0.1,0.1l-0.1,0
										l-1,0.1l-0.2-0.1l-0.2-0.1l-0.4-0.3l-0.5-0.6l-0.3-0.3l-0.2,0l-0.3,0.2l-0.4,0.9l-0.1,0.1l-0.2,0.1l-0.3,0l-0.1-0.1
										l-0.2-0.5l-0.1-0.1l-0.1-0.1l-0.2,0l-0.2,0.1l-0.2,0.4L384,252l-0.5,1.3l-0.7,1.1l-0.5,0.5l-0.2,0.2l-0.3,0.2l-2.4,0.1
										l-1-0.1l-1.2-0.3l-0.6-0.4l-0.4-0.5l-0.2-0.6l0.1-0.6l0.1-0.3l0.1-0.2l0.4-1.2l0-1.6l-0.5-0.8l-0.1-0.2l-1.5-0.9l-0.2-0.1
										l-0.5-0.2l-0.4,0l-1.2,0.5l-0.4,0.1l-0.5,0.4l-0.7,0.4l-0.5,0.3l-0.2,0l-0.2,0l-0.2,0l0-6.7l1.6,0l-1.6-1.5L369.9,235.7z"
										/>
								</g>
								<g id="region-svg_00000131368709202361155570000013906458326506679461_">
									<path class="st58" d="M470.1,228.4l13.6-0.2l39.8-0.8l0.5,17l-0.3,0l-0.4-0.2l-0.1-0.2l-1-0.6l-2.3-0.8l-0.5,0l-0.2,0.1
										l-1.4,2.1l-0.1,0.3l0,0.2l0.1,0.2l0,0.6l0,0.3l-0.1,0.6l-0.2,0.2l-0.3,0.2l-0.2,0.1l-0.6-0.2l-0.2,0l-0.2,0.1l-0.1,0.1
										l0,0.2l-0.1,0.7l0,0.3l-0.1,0.4l-0.3,0.2l-0.4,0l-0.9-0.4l-1-0.4l-0.5,0l-0.1,0.1l0,0.7l-0.2,0.6l-0.9,0.1l-1.5,0l-2.1,0.2
										l-2.6-0.2l-1-0.2l0-0.1l0.1-0.8l-0.1-0.2l-0.1-0.1l-0.3,0.1l-0.5,0.5l-0.9,0.4l-0.7,0l-0.3-0.1l0-0.2l0-0.6l-0.3-0.3
										l-0.3-0.1l-0.3,0.2l-0.3,0.3l-0.5,0.3l-0.4,0.1l-0.4,0l-0.2-0.2l-0.3-0.4l0-0.5l0.2-0.5l0-0.5l-0.1-0.5l-0.4-0.9l-0.2-0.2
										l-0.1-0.1l-0.2-0.1l-1.5-0.2l-0.9,0l-0.2,0.5l-2.1,1.6l-0.7,0.1l-0.8-0.2l-0.3,0.1l-0.3,0.2l-0.4,0.7l-0.5,0.5l-0.8,0.4
										l-0.9,0.1l-0.2,0l-1-0.6l-0.6-0.2l-0.7,0l-0.6,0.2l-0.1,0.2l-0.2,0.6l0,0.7l0,0.1l0.1,0.2l0.2,0.2l0.3,0.9l-0.1,0.2
										l-0.2,0.3l-0.3,0.2l-0.6,0.3l-0.1,0l-0.2-0.1l-0.8-0.8l-0.1-0.1l-0.7-0.3l-0.3,0l-2.3-0.9l-1.4-1l-0.5-1.4l-0.7-0.7
										l-2.6-0.7L474,245l-0.2-0.5l-0.2-13.7l-0.7-0.3l-0.3-1.5L470.1,228.4z"/>
								</g>
								<g id="region-svg_00000026160868482921529430000005393029874591524238_">
									<path class="st59" d="M482.2,73.3l2.2,0l6.7-0.1l0,1l0.9,1.3l0.7-0.3l1.6,0.6l0,1.7l1,1.2l-0.2,0.7l-1.4-0.1l0.4,0.7
										l8.2-0.1l14.5-0.3l0,2.7l-1.1,0l0.1,2.4l-0.8,1.7l-0.8,0l-1.6,1.9l0.6,1.3l0.1,1.4l-0.7,0.8l0,1.1l1.6,2l1.6,0.3l0.3,0.8
										l-0.2,0.9l-1.3,1.4l-0.8,1.6l-4.9,0.1l-1-0.6l-3.7,1.8l-3.6-0.3l-2.5,0.9l-2.8,0.4l-1.6,1.8l-0.8-1l-1.2,0l-1.1-0.7
										l-0.2-3.7l-0.7-1.7l-7.2,0.2l-3.4,0.1l0-3.5l3.6,0L482.2,73.3z"/>
								</g>
								<g id="region-svg_00000101094462877252258260000010968732487852619437_">
									<path class="st60" d="M369.8,218.9l0-16.8l13.4,0l0,10.1l20.1,0l0.3,1.9l-0.7,0.5l0.9,0.9l6.1,0l0,12.4l-2.2,0l-0.1,7.8
										l-37.8,0.1l-0.1-0.9L369.8,218.9z"/>
								</g>
								<g id="region-svg_00000077323365217669874910000005508206034701710523_">
									<path class="st61" d="M536.3,157.4l-0.3-11.1l7.2-0.2l-0.2-9.4l1.2-0.3l1-1.9l1.8-0.5l1.5,0.5l1.3,1.2l1.4,0.5l0.4,1.6
										l0.6,0.8l1.3,0.3l2-1.1l1.3-1.9l1.6,0.1l1,1.2l1.4,0.4l1-0.4l1.6,0.5l0.7-0.6l-0.9-1.5l0-1l0.9-0.8l-0.4-1l0.4-0.6l2.1-0.7
										l0.8-0.5l0.1,0.4l-0.1,0.3l0.1,0.5l0,0.2l0,0.3l0,4.4l0,1.2l0,0.3l0,0.9l0,0.1l0,0.2l0,1.6l0,0.6l0,0.2l0.1,0.6l0,1.6
										l0,0.2l0,0.8l0,0.3l0,0.5l0,1.2l0,0.2l0,3.1l0,0.7l0,4.4l0,9.9l0,2.9l0,0.1l0,0.3l0,1.2l0,1.1l0,0.2l0,0.2l0,9.8l0,6.7
										l0,0.6l0,6.7l0,0.2l0,2.9l-30,0.9l-0.3,0l-0.3-13.4l-7.8,0.2l-0.3-13.5l3.9-0.1l-0.2-6.7l4.5-0.1L536.3,157.4z"/>
								</g>
							</g>
							<path class="st62" d="M552.3,32.6l-10.2,0.1l-13.4,0.4l-0.5-21l0.3-0.5l-1.8-0.8l-0.6-0.9l-0.3-1.7l1.6-0.4 M376.1,9.7
								l0,31.3l-39.8-0.1l-0.2-26.9l-0.1,0l0-4.3 M332.9,202l-6.5-0.1l-0.1,3.4l-3.3,0l0,1.1l-13.3-0.2l0,2.3l-6.7-0.1l0,1.1l-3.4,0
								l0.1-7.8l-10.4-0.1l0.1-6.7l0.3-20.1l13.1,0.2l33.4,0.3l0.2,0.5l-0.1,12.9l26.7,0.1l6.7,0l0,13.4l0,0l0,16.8l-27.9-0.1
								l-0.3-0.1l-8.5-0.1l0.1-16.6L332.9,202l0.1-13.4l3.3,0 M218.4,46.2l0.2-7.2l24.6,0.6l19.3,0.2l0.3-17.3l0,1.1l1.4,1.3
								l1.2,0.4l2.5-0.4l1.3,0.3l1.4-0.2l1.6,0.6l0.8,1.6l1.8,1.6l0.8,1.6l1.4,0.5l1,1.6l-0.2,0.7l0.8,1.5l0.7,0.5l0,1.5l0.6,0.2
								l2.5,3.1l0.7,0.1l-0.1,7.1l0,20.1l-0.1,6.6L256.4,73l-13.3-0.2l0.1-6.4l-0.5,0l0.5-26.7 M428.9,132.8l1.5,0.3l0.8-1.1
								l0.6,0.7l1.4,0l-0.1,0.5l1.3,0.3l-0.1-1.5l-1.5-0.9l0.3-0.9l-0.8-0.3l0.9-1.3l2,1.2l0.2,0.6l1.4,0.2l0.8-0.9l-0.3-0.7
								l0.9-1.1l0.5,0.4l1.3-0.1l0.2-0.7l0.1,13.7l28.3-0.3l0.7,0l0,10.7l-1.3,0.2l-0.6,0.6l0.3,1.5l-1.3,0.2l-0.7,1.2l-1.3,1.3
								l-0.4,2.4l-1.2,0.5l0,15.1l0.1,6.7l-19.9,0.3l-0.1-10.9l-0.2-1.7l-0.6,1.8l-1.1,0.5l-1.5-1.1l-2,0.5l-0.1-15.8l3.1,0
								l-0.1-13.5 M217.4,94l1.8-0.5l0.8-0.9l2.2-1l1.3-1.7l-0.4-1.4l0.3-0.9l1.3-1.6l0.8,0l1.3-1.2l1.1-0.2l1.8,0.6l0.4,2.2
								l-0.4,0.9l-0.2,2.4l0.5,1.4l1.4,1.1l0.2,0.7l0.9,0.6l0.9-0.1l1.8,1.8l2.4,0.7l1.5,0.1l2.1,0.7l1.1-1.1l2.7-0.7l0.6-2.6
								l2.2-1.9l1.3-4.1l1.2-0.5l1.6-1.5l1.9-0.5l2.6,0l0.1,8.8l-0.1,6.7l-0.4,20.1l0.8,0l-0.1,3.3l-13.3-0.3l-0.1,6.7l-26.7-0.7
								 M302.9,73.7l2.2-0.1l24.3,0.3l6.6,0l0.4,0l26.3,0.1l0,33.9l-33.4-0.1l0.1-13.4l-0.1-20.6 M283,73.7l19.9,0l0.1,20.5
								l-0.1,6.7l-4.8-0.1l0,0l-41.8-0.7 M256.3,84.7l0.1-11.7 M502.8,8.3l0.1,4.3l-1.5,0l0.6,26.7l-23.4,0.4l-0.5-26.6l1.4,0
								l-0.1-4.5 M556.8,71.6L542.3,72l-13.3,0.3l0.2-6.8l-0.5-20.1l-0.2-6.8l0.2-5.6 M362.8,74.1l13.4,0l6.6,0l0,0.4l0,13.5l1.9-2
								l1.8,0.4l0.5,1.9l0.7,0.6l2,0.1l1.4,0.6l1.1,1.5l1.9,0.3l1.8-1l0.2,1 M396.3,128.2l0,6.7l-11,0l-6.7,0l-15.6,0l0-2.3
								l-0.1-11.2l0-13.5 M563.7,111.8l-21,0.6l-0.6-20.3l0.6,0L542.3,72 M443.4,208.6l16.7-0.2l-0.1-6.8l3.4,0l-0.2-13.5l13.3-0.2
								l0.1,6.7l13.4-0.3l0.1,6.7l-6.8,0.1l0,0.5l0.4,26.5l-13.6,0.2l-26.6,0.3L443.4,208.6l-6.8,0l-0.1-6.6l0-13.5l6.7-0.1
								l-0.1-6.8 M463.1,181.4l0.1,6.7 M490,194.3l10-0.2l-0.1-6.7l28.9-0.6l7.8-0.2l0.3,13.4l-6.9,0.1l0.5,20.4l-6.7,0.1l-0.2,6.7
								l-39.8,0.8 M428.7,91.1l-0.2-16.9l0.1-0.3l20-0.1l0.1,6.7l16.7-0.2l0.1,6.7l0.1,6.7l-0.2,3.4l-6.8,0l-3.2,0.1l0.2,16.8
								l-26.9,0.3 M376.2,74.1L376.2,41l25.1-0.1l1.4,0.6l2,0.3l3.4-0.6l1.7-0.8l0.5,0.1l1.5,1.8l-0.9,1.8l-1.4-0.1l-2.1,1.4
								l-1.3-0.1l-1.1,0.5l-0.8,1.7l-1.4,0l0.1,13.4l6.7,0l0,6.7l-13.4,0.1l0,6.7l-13.3,0 M302.8,174.8l0.2-18.7l0.3-8.2l-0.3,0
								l0.2-20.1l0.1-6.7l19.5,0.2l0.3,0l0.1,2.7l-0.1,10.8l13.2,0l0.2,13.6l-0.1,8.8l-0.1,18.1 M478.6,39.8l-0.2,0l0.2,13.4
								l-11.7,0.2L466.2,9 M302.9,100.9l-0.2,20.2l0.5,0 M303.1,127.8l-46.6-0.8l0.1-3.4 M499.8,187.4l-0.2-13.4l0.1-13.5l10-0.2
								l0-2.3l26.6-0.6l0.3,9l-4.5,0.1l0.2,6.7l-3.9,0.1l0.3,13.5 M94.6,3.6l-0.5,10.8l-0.3,0.3l-1.3,26.9 M336.3,40.9l-0.1,10.1
								l-26.7-0.2l0.1-10.1l-0.1-26.9l-0.3-4.4 M528.9,72.3l-6.7,0.2l0.2,6.7l-5.6,0.1l-14.5,0.3l-0.3-13.4l-0.2-20.2l6.6-0.1
								l20-0.4 M329.5,107.9l-6.7-0.1l-0.1,13.4 M465.6,97.2l13.3-0.2l3.4-0.1l0.2,10.1l3.3-0.1l0.2,13.4l-6.8,0.1l0,6.8l-3.3,0.1
								l0.1,6.7l-6.7,0.1l-6.7,0.1l-0.2-13.5l-6.6,0.1l-0.1-6.7 M303,156.1l-1.1-2l-0.7,0.6l-0.1-0.7l-1.3,0.4l-0.2,0.8l-1.3-0.3
								l-1,0.5l-0.3-0.7l-0.9,0.1l-0.3,0.8l-1-1.1l-38.5-0.6l0.1-6.8l0.1-20.2 M336.2,134.7l4.9,0l0.7,1.4l0.4-0.2l2.8,1.3l0.5-0.8
								l0-1.4l0.9,0.1l0.7,1.5l1.2,0l-0.1,0.6l1.2-0.3l1.3-1l0.4,1.3l1.4,0.7l2.7,0.2l0.1-0.3l1-0.7l2.2,1.7l2-0.1l2.2-0.8l0.1,0.9
								l0.1,36.2l-0.1,13.4 M420.1,9.5l0,4.5l0,12.3l-2.2,0l0,1.1l-2.1,0l0.1,1.4l-0.8,0.5l-2-0.7l-1.4,0.1l-1.1,1.2l-0.8,1.4
								l-0.7,2.4l-1.1,0.2l-1.1-0.4l-1.5,0.1l-0.7-0.4l-1.3,0l-0.4-0.6l-2.1,1.4l0.2,2.6l0.5,0.5l0.5,3.2l-0.8,0.7 M376.2,41
								L376.2,41 M428.8,128l0.1,4.8l-1.9,0.7l-0.7-0.5l-3.4-1l-0.4-1l-0.9,0.4l-0.3,1l-2.1-0.3l0.3,39.5l-1.4-0.4l0-1.9l-1-1.1
								l-2.5,1.2l-2.1,0.2l-1.6-2.5l-1.3-0.4l-1.7,1l-0.6,1.3l-1.8,1.5l-1.3,0.6l-2.3-1.1l-1.2,0.1l-0.5-0.7L397,169l-0.6,0.5
								l-0.1-34.7 M396.4,169.5l-0.8-0.2l-2.6,0.2l-0.2-0.9l-1.2-0.3l-0.6,1l-0.3-0.8l-1.8-0.3l-0.8-1.4l-1.7-0.1l-0.5,0.8l-1.7-0.4
								l-0.5-2.4l-1-3.3l0.5-1.4l-0.2-2l-0.9-0.7l-2.1-0.1l0.1-3l-0.4-1l-2-0.7l-0.3-1l-4.5-3.2l-1.7-1l-1.3-1.6l-0.3-1l0.7-1.1
								l-0.4-2.3l-1.3-0.8l-2.3-0.2l-2.2-2.2L363,138l0-3 M508.6,45.9l-0.2-6.8l-6.4,0.2 M436.5,201.9l-20,0.1l0-6.7l-6.7,0l0-3.4
								l-0.1-16.8l0.1-0.6l0-7.8 M419.6,171.6l1.3,0l0.9,2.3l0.9,0.9l2.1-0.9l0.5-1.1l-0.6-1.6l-1-0.6l0.7-1.4l2,0l1.3,2.1l1.6,0.2
								l1.7-0.5l1.2-0.8l1.3,0.2l0.1,1.2l0.6,1.2l1.1,1l1-0.5l1.4-2.7 M309.6,50.7l-0.1,5.1l-1.2-0.4l-2.5,0.8l-2-0.1l-4.6-1.9
								l-0.6-0.5l-1.1-1.8l-3.2-0.3l-1.9-1l-0.7-0.8l-1.5-2.8l-7.2-0.2 M262.8,22.5l-1.3-1.8l0.2-1.1l-3.6-1.9l-1.4-3.3l-1.3-1.5
								l-1.3-4.2l-0.8-0.3 M363,138l0,0.1 M369.8,218.9l0,15.9l0.1,0.9l0,5.3l1.6,1.5l-1.6,0l0,6.7 M332.9,230.2l0.1-11.4
								 M215.7,159.7l7,0.2l6.7,0.2l0.2-6.7l21.6,1l1.9-0.4l0.6,1.5l1.3,0.8l0.6-0.2l0.1,2.2l0.9,1.3l1.4,0.2l0.2,0.9l-0.7,3.2
								l-0.8,0.4l0.8,0.8l0.2,2.2l2,1.6l0.5,1.7l-0.1,1.2l-1.6,0l-0.1,1.1l0.7,1.1l1.5,0.7l0.3,0.7l1.4,0.2l0.6,1.1l-0.3,0.7
								l-9.9-0.2l0,3.4l-2-0.1l0,2.5l-0.3,0.5l1.2,0.4l-15.5-0.3l0-2.3l-1.1,0l0-1.1l-2.2-0.1l0.2-6.8l-0.7,0l0.2-6.7l-9.9-0.2
								l0.1-6.7 M236.3,183.8l-0.3,16.8l-11.3-0.2 M469.4,134.2l0.1,6.7 M256.3,153.9l-3.1,0l-0.1,0.2 M542.7,112.4l-20.1,0.5
								l-0.3-13.4l-8.7,0.2l0.8-1.6l1.3-1.4l0.2-0.9l-0.3-0.8l-1.6-0.3l-1.6-2l0-1.1l0.7-0.8l-0.1-1.4l-0.6-1.3l1.6-1.9l0.8,0
								l0.8-1.7l-0.1-2.4l1.1,0l0-2.7 M219.5,7.5L218.6,39 M159.4,44.4l1-26.9l0.5,0L161.4,6 M432.2,249.1l0.4-1l-0.9-2.7l1.2-1.6
								l-0.5-0.8l-0.6,0.2l-1.4-1.5l-0.6-1.4l1.3,0l0.7-0.7l0.7,0.7l0.6-1.1l0-1.3l1.7-2.1l-0.8-0.7l-0.4-1.2l-1.3-1.9l8.4-0.1
								l-0.1-3.3l3,0 M470.1,228.4l2.5,0.6l0.3,1.5l0.7,0.3l0.2,13.7l0.2,0.5l1.1,1.3l2.6,0.7l0.7,0.7l0.5,1.4l1.4,1l2.3,0.9
								 M536.8,200l0.3,0l30-0.9 M523.9,244.4l-0.5-17 M289.5,194.8l-11.1-0.2l0.1-3.3l-6.5-0.1l0.5-2.4l3.3-0.6l0.4-0.8l-1-1.2
								l-2.9,0.5l-3.2-0.6l-0.6-0.6l0.3-1.1l-1.1-2.4l1.3-0.4l-0.8-1l0.8-2.4l0.2-3l0.4-0.5l-1.7,0l-0.7-0.8l-0.7,1.2l-1.3,0.4l0,1
								l-2.1,0.3 M482.3,97l7.2-0.2l0.7,1.7l0.2,3.7l1.1,0.7l1.2,0l0.8,1l1.6-1.8l2.8-0.4l2.5-0.9l3.6,0.3l3.7-1.8l1,0.6l4.9-0.1
								 M522.6,112.9l0.2,6.7l-0.3,2l0.8,1.5l1.8,2l0.5,1.4l1.5-0.3l0.7,0.5l-1.2,0.8l-0.7,1.2l-0.3,2.1l-1,0.7l-1.3,2l-1-0.6
								l-1.3,0.9l1.2,1.1l-0.6,0.8l-1.6-0.3l-0.4,1.1l0.8,2l-0.4,0.7l-1.4-0.1l-0.3,1.1l-1.1,1.4l-1.1,0.7l-1.4-0.5l-1.7-2l-1.5-0.6
								l-2.1,0.8l-0.5-20l-0.8,0l-22.3,0.4 M336.1,74l0.1-23 M271.9,191.1l1.5,1.5l-0.6,0.3l0.3,1.9l-1.1-0.3l-1.4,0.5l-0.7-0.3
								l-2,0.3l-1.4,2l0.4,1.7l-1.2-0.2l-0.9,3.1l-0.7,0.5l0,2.3l0.5,0.6l-1,0.3l0.3,1.5l-0.4,1l-0.6-0.4l0.6,2.9l1.2-0.1l-0.7,1.1
								l0.8,0l0.9,1.5l-0.4,1.2l-0.8,0.3 M502.3,79.7l-8.2,0.1l-0.4-0.7l1.4,0.1l0.2-0.7l-1-1.2l0-1.7l-1.6-0.6l-0.7,0.3l-0.9-1.3
								l0-1l-6.7,0.1l-2.2,0l-3.4,0.1l0.1-6.7l-0.2-7.8l0-3.3l1.1,0l-0.1-2.3l-1.1,0 M363.1,175.2l46.6,0 M409.8,192l-13.4,0l0,1.1
								l-3.7,0l0.7,2.1l0.9,0l0.7,1.8l-0.7,0.1l1.2,1.6l-0.4,0.3l0.4,2l0.8,1.2l-13.3,0l-13.4,0 M302.8,228.7l0.2-13.7l-3.3,0
								l0.1-5.6 M466.9,53.4l0.3,20.3l-16.7,0.2l0-0.9l1.3-1.4l0.1-1.8l-0.7-0.9l-2.8-0.2l-1.6,0.2l-1.5-0.8l-2.2-2.3l-2.2-0.8
								l-0.7-0.7l-0.8-2.7l-0.7-0.9l-1.8,0.2l-0.9,1.8l-0.8,0.7l-2.3-0.1l-1.3-1.2l0-1.2l0.9-1.3l1.5-0.6l0.9-1.5l-0.5-1.4l-0.9-0.5
								l-2.1,2l-1.6-0.6l-0.3-1.6l-0.9-0.5l-1-1.2l-2.4,0.4l-0.9-0.3l-1.3-1l-0.4-1.3l0.7-1.7l-0.2-1.1l-1-0.9l0.1-1.3l-0.9-2.3
								l-1-1l-1-0.2l-1.8,0.9l-1.4,1.1l-1,1.4l0,0.7l-0.8,1.6l-1.5,1.6l-2.3,0.3l-1.7,1l-1.7-0.3l-2.4-2l-0.3-1.6 M566.8,131.2
								l-0.8,0.5l-2.1,0.7l-0.4,0.6l0.4,1l-0.9,0.8l0,1l0.9,1.5l-0.7,0.6l-1.6-0.5l-1,0.4l-1.4-0.4l-1-1.2l-1.6-0.1l-1.3,1.9l-2,1.1
								l-1.3-0.3l-0.6-0.8l-0.4-1.6l-1.4-0.5l-1.3-1.2l-1.5-0.5l-1.8,0.5l-1,1.9l-1.2,0.3l-0.9-1.1l-0.1-1.9l-1-0.7l-1.3,1.1
								l-2.2,0.8l-0.8,0l-0.3-0.5l1.5-1.5l0.1-0.9l-0.6-1l-1.5,0.4l-1.5-1.1l-2.4,0l-1.3-0.4l-1.2-1.3l-0.1-1.7l-1.6-0.4
								 M409.6,67.7l6.6,0l0,6.8l12.3-0.2 M448.7,73.8l1.8,0 M482.2,73.3l0.4,20.2l-3.6,0l0,3.5 M432.2,232.1l0.2-0.9l-1.6-1.1
								l-0.9-1.7l-0.5,0.7l-1-1.1l-0.8,0.5l-0.9-0.8l-16.9,0.1l0-12.4l3.3,0l-0.1-13.4l3.4,0 M509.6,139.9l-2.9-2.6l-1.3,0.3l-1,1.4
								l-1.5,0.8l-0.6,0.3l-2.5-0.6l-1.2,1.7l0.4,1l-1.9,1.1l-1.8,0.6l-1.8,1.8l-0.9,0l-0.2-0.7l0.8-0.4l-0.2-1.1l-1.2,0.2l-2.7,1.6
								l-0.7,0.9l0.5,0.6l-2.1,0.5l-0.5,1l-1.7-0.2l-0.8,1.2l-0.8-0.1l-1.6-1.4l-2.9,1.1l-2-0.1l-1.1,2.4l-1.2,0.9l-1.3,0l-2.2-0.7
								l-1.3,0.1 M410,244.7l0-4.5l-2.2,0l0-4.5l0.1-7.8l2.2,0 M409.9,215.5l-6.1,0l-0.9-0.9l0.7-0.5l-0.3-1.9l-20.1,0l0-10.1
								 M502.9,139.8l0.2,7.2l-0.2,3.3l6.7-0.1l0.2,7.9 M543,136.8l0.2,9.4l-7.2,0.2l0.3,11.1 M369.9,235.7l37.8-0.1 M396.3,108
								l0-16.8l32.4-0.2l0.2,23.4l-0.1,13.6l-31.6,0.1l-0.9,0L396.3,108l-33.4-0.1"/>
							<g id="outlines-svg">
							</g>
							<path class="st63" d="M0,0"/>
							<g id="places-svg">
								<g id="place-svg_point-svg" transform="translate(443.63469, 136.02348)">
									<g id="text-wrapper-svg" transform="translate(-3, -13)">
										<g id="Bearden-svg">
											<text transform="matrix(1 0 0 1 0 3.9)" class="st5 st64">Bearden</text>
											<text transform="matrix(1 0 0 1 0 3.9)" class="st65 st5 st64">Bearden</text>
											<text transform="matrix(1 0 0 1 0 3.9)" class="st0 st5 st64">Bearden</text>
										</g>
									</g>
									<path class="st66" d="M-3,0c0,1.7,1.3,3,3,3s3-1.3,3-3S1.7-3,0-3S-3-1.7-3,0z"/>
								</g>
								<g id="place-svg_capital-svg" transform="translate(372.70326, 127.50815)">
									<g id="text-wrapper-svg_00000038376987777013581890000006410624139344803767_" transform="translate(-3, -13)">
										<g id="CityOklahoma-svg">
											<text transform="matrix(1 0 0 1 0 3.9)" class="st2 st64">City</text>
											<text transform="matrix(1 0 0 1 0 3.9)" class="st65 st2 st64">City</text>
											<text transform="matrix(1 0 0 1 0 -10.1)" class="st2 st64">Oklahoma</text>
											<text transform="matrix(1 0 0 1 0 -10.1)" class="st65 st2 st64">Oklahoma</text>
											<text transform="matrix(1 0 0 1 0 3.9)" class="st0 st2 st64">City</text>
											<text transform="matrix(1 0 0 1 0 -10.1)" class="st0 st2 st64">Oklahoma</text>
										</g>
									</g>
									<path class="st66" d="M-2.7-2.7h5.3v5.3h-5.3V-2.7z"/>
								</g>
							</g>
						</g>
					</g>
				</g>
			</g>
			<text transform="matrix(1 0 0 1 0 415.7969)" class="st67 st5 st68">Map:</text>
			<text transform="matrix(1 0 0 1 27.189 415.7969)" class="st67 st5 st68">Allison Krugman</text>
			<text transform="matrix(1 0 0 1 110.0217 415.7969)" class="st67 st5 st68"></text>
			<text transform="matrix(1 0 0 1 116.6118 415.7969)" class="st67 st5 st68">Source:</text>
			<text transform="matrix(1 0 0 1 157.2553 415.7969)" class="st67 st5 st68">Institute for Health Metrics and Evaluation</text>
			<text transform="matrix(1 0 0 1 363.5964 415.7969)" class="st67 st5 st68"></text>
			<text transform="matrix(1 0 0 1 370.1865 415.7969)" class="st67 st5 st68">Created with</text>
			<text transform="matrix(1 0 0 1 434.6723 415.7969)" class="st67 st5 st68">Datawrapper</text>
		</g>
	</g>
</g>
</svg>
